<svg width="14" height="11" viewBox="0 0 14 11" fill="none" xmlns="http://www.w3.org/2000/svg">
<g clip-path="url(#clip0_989_1885)">
<path d="M0 0H14V10.5H0V0Z" fill="#00008B"/>
<path d="M0.820312 0L3.48906 1.97969L6.14687 0H7V0.678125L4.375 2.63594L7 4.58281V5.25H6.125L3.5 3.29219L0.885938 5.25H0V4.59375L2.61406 2.64687L0 0.7V0H0.820312Z" fill="white"/>
<path d="M4.6375 3.07344L7 4.8125V5.25L4.03594 3.07344H4.6375ZM2.625 3.29219L2.69062 3.675L0.590625 5.25H0L2.625 3.29219ZM7 0V0.0328125L4.27656 2.08906L4.29844 1.60781L6.45312 0H7ZM0 0L2.61406 1.925H1.95781L0 0.459375V0Z" fill="#FF0000"/>
<path d="M2.63594 0V5.25H4.38594V0H2.63594ZM0 1.75V3.5H7V1.75H0Z" fill="white"/>
<path d="M0 2.11094V3.16094H7V2.11094H0ZM2.98594 0V5.25H4.03594V0H2.98594Z" fill="#FF0000"/>
<path d="M11.5281 8.67766L11.0797 8.73453L11.1278 9.18297L10.804 8.86797L10.4825 9.18516L10.5262 8.73672L10.0778 8.68422L10.4562 8.43922L10.2178 8.05641L10.6465 8.19859L10.7975 7.77203L10.9528 8.19641L11.3794 8.04984L11.1453 8.43484L11.5259 8.67766H11.5281ZM11.4472 6.11391L11.5062 5.82953L11.2919 5.63266L11.5806 5.59984L11.7009 5.33516L11.8212 5.59984L12.11 5.63266L11.8956 5.82953L11.9547 6.11391L11.7009 5.96953L11.4472 6.11391ZM9.16999 4.80141L8.72592 4.84953L8.7653 5.29359L8.4503 4.97641L8.12655 5.28484L8.17905 4.84078L7.73717 4.78172L8.11561 4.54547L7.88592 4.16266L8.30811 4.31141L8.46561 3.89359L8.61217 4.31578L9.03655 4.17797L8.79811 4.55641L9.17217 4.80141H9.16999ZM13.6281 4.08391L13.1709 4.14297L13.2212 4.60016L12.8909 4.27859L12.5628 4.60234L12.6087 4.14297L12.1515 4.09047L12.5387 3.83891L12.2959 3.44734L12.7334 3.59391L12.8865 3.16078L13.044 3.59391L13.4794 3.44297L13.2387 3.83672L13.6281 4.08391ZM11.5259 2.25734L11.0731 2.30766L11.1147 2.76266L10.7931 2.43891L10.4628 2.75391L10.5153 2.30109L10.0625 2.23984L10.4497 1.99922L10.2156 1.60766L10.6465 1.75859L10.8062 1.33203L10.955 1.76297L11.3881 1.62078L11.1453 2.00578L11.5259 2.25734ZM5.11874 8.43703L4.11686 8.55516L4.21749 9.55922L3.49999 8.85047L2.77811 9.55484L2.8853 8.55078L1.88342 8.42391L2.73436 7.88141L2.20936 7.01953L3.16311 7.34766L3.50874 6.39828L3.8478 7.34984L4.80374 7.02828L4.27217 7.88578L5.12092 8.43484L5.11874 8.43703Z" fill="white"/>
</g>
<defs>
<clipPath id="clip0_989_1885">
<rect width="14" height="10.5" fill="white"/>
</clipPath>
</defs>
</svg>
