<svg width="16" height="17" viewBox="0 0 16 17" fill="none" xmlns="http://www.w3.org/2000/svg">
<circle cx="8" cy="8.5" r="8" fill="#0C2045"/>
<path d="M6.41143 4.45052C5.8319 4.45062 5.31163 4.7267 4.94667 5.22417L4.94665 5.2242C4.63032 5.65612 4.45 6.23497 4.45 6.81472C4.45 8.1743 5.12193 9.25652 5.95972 10.2371L5.12043 12.0242L5.08696 12.0954H5.16569H5.83257H5.86433L5.87783 12.0667L6.47018 10.8055C6.64554 10.9937 6.82408 11.1796 7.00135 11.3641L7.00573 11.3687L7.00574 11.3687C7.29162 11.6662 7.58654 11.9732 7.85926 12.2803L7.85928 12.2803L8.08426 12.5332L8.12152 12.5751L8.15889 12.5333L8.38448 12.281L8.38449 12.281C8.65341 11.9799 8.94296 11.6787 9.22353 11.3881L9.2236 11.388L9.25518 11.3552C9.42892 11.1745 9.60378 10.9927 9.77563 10.8084L10.366 12.0676L10.3795 12.0964H10.4113H11.078H11.1566L11.1232 12.0252L10.2861 10.2395C11.1241 9.25808 11.7944 8.17467 11.7944 6.81432C11.7944 6.23387 11.6152 5.6544 11.3004 5.22403L11.3004 5.22402C10.9364 4.72644 10.4151 4.45022 9.83302 4.45012M6.41143 4.45052C6.84152 4.44545 7.25765 4.60305 7.57648 4.89175C7.78811 5.08011 7.9667 5.32086 8.12221 5.62556C8.27759 5.32067 8.45625 5.07978 8.66818 4.89134C8.9869 4.6026 9.40299 4.445 9.83302 4.45012M6.41143 4.45052C6.41153 4.45052 6.41163 4.45052 6.41173 4.45052V4.50052L6.41113 4.45053C6.41123 4.45053 6.41133 4.45053 6.41143 4.45052ZM9.83302 4.45012C9.83312 4.45012 9.83322 4.45012 9.83332 4.45012L9.83272 4.50012V4.45012C9.83282 4.45012 9.83292 4.45012 9.83302 4.45012ZM8.15516 12.4625L8.3472 12.2477L8.15516 12.4625ZM8.15516 12.4625L8.15898 12.4668L8.12162 12.5L8.08434 12.4667L8.08817 12.4624L7.89664 12.247C7.62316 11.9392 7.32755 11.6315 7.04179 11.334L8.15516 12.4625ZM10.7323 5.63945L10.7323 5.63946C10.9593 5.94958 11.0907 6.378 11.0907 6.81432C11.0907 7.84994 10.6208 8.71237 9.95666 9.5366L8.51128 6.45208L8.74074 5.96155C8.87918 5.68534 9.03811 5.4837 9.21845 5.35116C9.3982 5.21905 9.60155 5.15382 9.83272 5.15382C10.2814 5.15382 10.5685 5.41541 10.7323 5.63945ZM8.7165 10.8997L8.71645 10.8997L8.68825 10.929C8.50141 11.1233 8.31026 11.322 8.12291 11.5235C7.92101 11.3054 7.71456 11.0904 7.51311 10.8808C7.26684 10.6244 7.02392 10.3714 6.79194 10.1172L8.12221 7.28103L9.45314 10.1205C9.21709 10.38 8.96858 10.6382 8.7165 10.8997ZM7.73375 6.4521L6.28841 9.5338C5.63989 8.72892 5.17556 7.88913 5.1537 6.8873V6.81432C5.1537 6.40282 5.27364 5.98548 5.49176 5.67237C5.70936 5.36 6.02238 5.15382 6.41173 5.15382C6.64299 5.15382 6.84624 5.21905 7.02591 5.35115C7.20618 5.4837 7.36507 5.68535 7.50372 5.96159L7.73375 6.4521Z" fill="white" stroke="white" stroke-width="0.1"/>
<path d="M11.5341 11.5803V12.0472H11.4335V11.5803H11.2707V11.4841H11.6977V11.5803H11.5341Z" fill="white"/>
<path d="M12.2938 12.0472V11.5999L12.1562 12.0472H12.0508L11.9133 11.5999V12.0472H11.8145V11.4838H11.9703L12.1035 11.9202L12.2369 11.4838H12.3929V12.0472H12.2938Z" fill="white"/>
</svg>
