<svg width="11" height="12" viewBox="0 0 11 12" fill="none" xmlns="http://www.w3.org/2000/svg">
<path d="M10.075 1.17311C9.82478 0.81224 9.49107 0.51715 9.10228 0.312939C8.71349 0.108728 8.28115 0.00144053 7.84199 0.000204037C7.18693 -0.0080082 6.55301 0.231945 6.06758 0.67187C5.80893 0.906852 5.58752 1.17981 5.41095 1.48138C5.23439 1.17981 5.01298 0.906852 4.75432 0.67187C4.2685 0.232591 3.63485 -0.00726283 2.97991 0.000204037C2.54153 0.00182599 2.11002 0.109315 1.72211 0.313528C1.33419 0.51774 1.00134 0.81263 0.751877 1.17311C0.260956 1.86513 -0.00187375 2.69304 1.00561e-05 3.5415C1.00561e-05 5.62417 1.10776 7.24319 2.11526 8.43615L0.804513 11.2306H2.30825L3.10522 9.53137C3.2957 9.73437 3.49118 9.93738 3.68667 10.1404C4.09017 10.5614 4.50871 10.9975 4.89467 11.4311L5.39592 12L5.89716 11.4336C6.27811 11.005 6.68913 10.5815 7.08511 10.168L7.69161 9.53638L8.48608 11.2306H9.98981L8.68157 8.43865C9.68406 7.24569 10.7943 5.62918 10.7943 3.5415C10.8039 2.69684 10.5528 1.86977 10.075 1.17311ZM2.97991 1.36108C3.56888 1.36108 4.01247 1.69441 4.36836 2.40367L4.65909 3.02522L2.76438 7.06775C1.80199 5.81464 1.37092 4.7119 1.37092 3.5415C1.38095 2.46883 1.98243 1.36108 2.98993 1.36108H2.97991ZM7.09013 8.20808C6.77685 8.55144 6.44351 8.89479 6.11269 9.23814L5.41095 9.97247C5.16033 9.72184 4.90971 9.45117 4.67412 9.19804C4.36084 8.87223 4.04005 8.5364 3.73429 8.19555L5.41095 4.61666L7.09013 8.20808ZM9.461 3.53899C9.461 4.7119 9.02993 5.81464 8.06754 7.06775L6.17033 3.03775L6.46106 2.41871C6.81945 1.70443 7.26305 1.37361 7.85201 1.37361C8.07701 1.37688 8.29785 1.43469 8.49559 1.54207C8.69334 1.64946 8.86207 1.80321 8.98732 1.99015C9.30004 2.44577 9.46538 2.98639 9.461 3.53899Z" fill="white"/>
</svg>
