<svg width="73" height="14" viewBox="0 0 73 14" fill="none" xmlns="http://www.w3.org/2000/svg">
<g clip-path="url(#clip0_1434_1958)">
<path d="M27.1723 0.824219L23.8555 7.92784L21.7079 0.824219H18.8612L16.6962 7.92784L13.3968 0.824219H10.4465L15.5967 13.1745H17.6215L20.2767 4.58833L22.9484 13.1745H24.9724L30.1234 0.824219H27.1723Z" fill="white"/>
<path d="M5.27288 0.824219L0 13.1745H2.89891L4.03322 10.5089L5.06482 8.08641L6.60132 4.49936L8.12129 8.08641L9.15027 10.5089L10.2863 13.1745H13.1852L7.91236 0.824219H5.27288Z" fill="white"/>
<path d="M32.2597 0.824219L26.9868 13.1745H29.8857L31.02 10.5089L32.0516 8.08641L33.589 4.49936L35.1072 8.08641L36.1371 10.5089L37.274 13.1745H40.1721L34.8983 0.824219H32.2597Z" fill="white"/>
<path d="M50.8179 4.92484C50.8179 6.90394 50.0437 8.18155 48.4953 8.75766L51.5849 13.1772H48.2324L45.5294 9.23599H43.6403V13.1816H40.9155V0.824219H45.5433C47.4411 0.824219 48.7948 1.14722 49.6044 1.79322C50.414 2.43921 50.8185 3.48191 50.8179 4.92131V4.92484ZM47.5316 6.39155C47.8688 6.085 48.0371 5.59902 48.0366 4.93365C48.036 4.26827 47.8619 3.81196 47.5142 3.56472C47.166 3.31571 46.5546 3.19151 45.68 3.19209H43.6403V6.85138H45.6304C46.5624 6.85138 47.1974 6.69811 47.5351 6.39155" fill="white"/>
<path d="M53.103 0.824219V13.1745H62.0966V10.7371H55.8287V8.1745H61.294V5.826H55.8287V3.28018H61.9059V0.824219H53.103Z" fill="white"/>
<path d="M66.9045 1.6368H67.0045V1.5368V0.957031V0.857031H66.9045H63.7078H63.6078V0.957031V1.5368V1.6368H63.7078H64.9099V5.35138V5.45138H65.0099H65.6024H65.7024V5.35138V1.6368H66.9045ZM72.1232 5.45138H72.2232V5.35138V0.957031V0.857031H72.1232H71.1531H71.08L71.0578 0.926633L70.0137 4.19889L68.9696 0.926633L68.9474 0.857031H68.8743H67.9042H67.8042V0.957031V5.35138V5.45138H67.9042H68.4902H68.5902V5.35138V2.15913L69.619 5.38179L69.6412 5.45138H69.7142H70.3132H70.3861L70.4084 5.38194L71.4437 2.15589V5.35138V5.45138H71.5437H72.1232Z" fill="white" stroke="white" stroke-width="0.2"/>
</g>
<defs>
<clipPath id="clip0_1434_1958">
<rect width="72.4318" height="14" fill="white"/>
</clipPath>
</defs>
</svg>
