<svg width="16" height="17" viewBox="0 0 16 17" fill="none" xmlns="http://www.w3.org/2000/svg">
<path d="M3.55657 15.6364L4.73677 13.1237C5.08519 13.4974 5.4398 13.8665 5.79188 14.2331L5.80074 14.2423L5.80075 14.2423C6.37252 14.8375 6.96227 15.4513 7.50759 16.0653L7.50764 16.0653L7.9576 16.5712L8.03746 16.661L8.11756 16.5714L8.56872 16.0667L8.56875 16.0667C9.10649 15.4647 9.68549 14.8624 10.2466 14.2812L10.2468 14.281L10.3101 14.2152C10.6551 13.8564 11.0023 13.4953 11.3437 13.1294L12.5199 15.6383L12.5489 15.7H12.617H13.9503H14.1189L14.0474 15.5473L12.3751 11.9801C14.0501 10.0178 15.3905 7.85028 15.3905 5.12864C15.3905 3.96637 15.0316 2.80591 14.4011 1.94383L14.4011 1.94381C13.6718 0.94697 12.6271 0.39329 11.4605 0.393086C10.5987 0.382831 9.76479 0.698688 9.12601 1.27735C8.70428 1.65237 8.34843 2.13089 8.03885 2.7354C7.72901 2.13128 7.37332 1.65303 6.95217 1.27818C6.31318 0.699583 5.47921 0.383736 4.61725 0.393891C3.45574 0.394095 2.41316 0.947492 1.68201 1.9441L1.68196 1.94417C1.04832 2.80934 0.687277 3.96856 0.687277 5.12944C0.687277 7.84955 2.03088 10.0147 3.70544 11.9752L2.02881 15.5453L1.95709 15.698H2.1258H3.45958H3.52764L3.55657 15.6364ZM13.2533 2.78312L13.2533 2.78314C13.7063 3.40202 13.9688 4.25732 13.9688 5.12864C13.9688 7.19378 13.0333 8.91458 11.7094 10.5598L8.8249 4.40415L9.28236 3.42622C9.55889 2.87452 9.87609 2.47229 10.2356 2.20808C10.5938 1.9448 10.999 1.81481 11.4599 1.81481C12.354 1.81481 12.9263 2.33603 13.2533 2.78312ZM9.22227 13.2944L9.22218 13.2945L9.16585 13.3531C8.79389 13.7397 8.41334 14.1353 8.04026 14.5364C7.63808 14.1022 7.22696 13.6741 6.82582 13.2567C6.3344 12.7451 5.84973 12.2402 5.38683 11.7332L8.03885 6.07893L10.6922 11.7397C10.2211 12.2574 9.72531 12.7727 9.22227 13.2944ZM7.25403 4.40419L4.36963 10.5542C3.0768 8.9477 2.1526 7.27217 2.109 5.27452V5.12864C2.109 4.30692 2.34853 3.4737 2.78382 2.84882C3.21801 2.22554 3.84205 1.81481 4.61789 1.81481C5.07896 1.81481 5.48394 1.9448 5.84201 2.20807C6.20136 2.47229 6.51848 2.87452 6.79542 3.42629L7.25403 4.40419Z" fill="#061023" stroke="#061023" stroke-width="0.214313"/>
</svg>
