<svg width="15" height="12" viewBox="0 0 15 12" fill="none" xmlns="http://www.w3.org/2000/svg">
<path d="M12.4754 0.397063H12.5254V0.347063V0.09375V0.04375H12.4754H11.1079H11.0579V0.09375V0.347063V0.397063H11.1079H11.615V2.01375V2.06375H11.665H11.9184H11.9684V2.01375V0.397063H12.4754ZM14.7079 2.06375H14.7579V2.01375V0.09375V0.04375H14.7079H14.2929H14.2562L14.2452 0.0788403L13.8055 1.48625L13.3658 0.0788403L13.3549 0.04375H13.3181H12.9031H12.8531V0.09375V2.01375V2.06375H12.9031H13.1538H13.2038V2.01375V0.666011L13.6297 2.02867L13.6406 2.06375H13.6774H13.9336H13.9703L13.9813 2.02874L14.41 0.664356V2.01375V2.06375H14.46H14.7079Z" fill="white" stroke="white" stroke-width="0.1"/>
<path d="M10.3826 1.17311C10.1324 0.81224 9.79868 0.51715 9.4099 0.312939C9.02111 0.108728 8.58876 0.00144053 8.14961 0.000204037C7.49455 -0.0080082 6.86063 0.231945 6.3752 0.67187C6.11654 0.906852 5.89514 1.17981 5.71857 1.48138C5.542 1.17981 5.3206 0.906852 5.06194 0.67187C4.57612 0.232591 3.94246 -0.00726283 3.28753 0.000204037C2.84915 0.00182599 2.41764 0.109315 2.02972 0.313528C1.64181 0.51774 1.30896 0.81263 1.05949 1.17311C0.568573 1.86513 0.305743 2.69304 0.307627 3.5415C0.307627 5.62417 1.41538 7.24319 2.42288 8.43615L1.11213 11.2306H2.61586L3.41284 9.53137C3.60331 9.73437 3.7988 9.93738 3.99429 10.1404C4.39779 10.5614 4.81633 10.9975 5.20229 11.4311L5.70353 12L6.20478 11.4336C6.58572 11.005 6.99674 10.5815 7.39273 10.168L7.99923 9.53638L8.7937 11.2306H10.2974L8.98919 8.43865C9.99168 7.24569 11.1019 5.62918 11.1019 3.5415C11.1115 2.69684 10.8604 1.86977 10.3826 1.17311ZM3.28753 1.36108C3.87649 1.36108 4.32009 1.69441 4.67597 2.40367L4.9667 3.02522L3.072 7.06775C2.10961 5.81464 1.67854 4.7119 1.67854 3.5415C1.68856 2.46883 2.29005 1.36108 3.29755 1.36108H3.28753ZM7.39774 8.20808C7.08447 8.55144 6.75113 8.89479 6.42031 9.23814L5.71857 9.97247C5.46795 9.72184 5.21732 9.45117 4.98174 9.19804C4.66846 8.87223 4.34767 8.5364 4.04191 8.19555L5.71857 4.61666L7.39774 8.20808ZM9.76862 3.53899C9.76862 4.7119 9.33755 5.81464 8.37516 7.06775L6.47795 3.03775L6.76868 2.41871C7.12707 1.70443 7.57067 1.37361 8.15963 1.37361C8.38462 1.37688 8.60547 1.43469 8.80321 1.54207C9.00095 1.64946 9.16968 1.80321 9.29494 1.99015C9.60766 2.44577 9.773 2.98639 9.76862 3.53899Z" fill="white"/>
</svg>
