<svg width="21" height="21" viewBox="0 0 21 21" fill="none" xmlns="http://www.w3.org/2000/svg">
<path d="M10.4353 3.09446C12.3624 3.09446 14.2895 3.09446 16.2161 3.09446C17.3991 3.09446 18.2393 3.93505 18.2393 5.1196C18.2393 8.97377 18.2397 12.8274 18.2393 16.6816C18.2393 17.8642 17.3972 18.7048 16.2136 18.7048C12.3595 18.7048 8.50578 18.7053 4.65161 18.7048C3.47097 18.7048 2.62891 17.8623 2.62891 16.6797C2.62891 12.8255 2.62891 8.97181 2.62891 5.11765C2.62891 3.93652 3.47194 3.09494 4.65454 3.09446C6.58162 3.09397 8.5087 3.09446 10.4353 3.09446ZM10.4392 4.40341C8.537 4.40341 6.63431 4.40341 4.73211 4.40341C4.14276 4.40341 3.93835 4.60685 3.93786 5.19327C3.93786 8.99816 3.93786 12.8031 3.93786 16.6079C3.93786 17.1914 4.1452 17.3963 4.73357 17.3963C8.53017 17.3963 12.3268 17.3963 16.1239 17.3963C16.7254 17.3963 16.9303 17.1924 16.9303 16.5938C16.9303 12.7972 16.9303 9.0006 16.9303 5.20351C16.9303 4.60392 16.7273 4.40341 16.1219 4.40341C14.2275 4.40341 12.3331 4.40341 10.4392 4.40341Z" fill="#0352C9"/>
<path d="M9.64936 6.14254C9.54036 6.1425 9.43137 6.14245 9.32238 6.14241C8.37657 6.14201 7.43152 6.14161 6.48614 6.1437L9.64936 6.14254ZM9.64936 6.14254L9.64878 6.1437H10.4581C10.8945 6.1437 11.3308 6.14359 11.7669 6.14349C12.6389 6.14327 13.5106 6.14305 14.3826 6.1437H14.383C14.5874 6.1437 14.7318 6.18339 14.8329 6.24241C14.9276 6.29771 15.0156 6.38772 15.083 6.55091L15.0833 6.55163C15.118 6.63508 15.1383 6.75894 15.1408 6.91333M9.64936 6.14254L15.1408 6.91333M15.1408 6.91333C15.1514 7.58968 15.1481 8.26704 15.1442 8.95006L15.1442 8.9501C15.1425 9.2377 15.0559 9.41564 14.9505 9.52084C14.8454 9.62579 14.6679 9.71193 14.3803 9.71211H14.3801C11.7479 9.71455 9.11515 9.71455 6.48292 9.71211M15.1408 6.91333L6.486 6.1437C6.19771 6.14445 6.0198 6.23075 5.91454 6.33572C5.80925 6.44071 5.72274 6.61811 5.72131 6.90539C5.7179 7.58626 5.7179 8.26712 5.72131 8.94798C5.72275 9.23599 5.80933 9.41465 5.91476 9.52031C6.01977 9.62556 6.19665 9.71172 6.48292 9.71211M6.48292 9.71211C6.48297 9.71211 6.48302 9.71211 6.48308 9.71211L6.48245 10.2121L6.48292 9.71211Z" stroke="#0352C9"/>
<path d="M7.63864 13.4529C8.24298 13.4529 8.8471 13.4524 9.45144 13.4529C9.69773 13.4529 9.89083 13.5482 9.98818 13.7837C10.0202 13.8607 10.031 13.9511 10.0323 14.0356C10.0373 14.3508 10.0357 14.6661 10.0339 14.9813C10.0319 15.3414 9.81129 15.5627 9.45031 15.5629C8.23442 15.564 7.01831 15.564 5.80242 15.5629C5.44211 15.5624 5.22174 15.3405 5.21993 14.9802C5.21836 14.665 5.21836 14.3497 5.21993 14.0345C5.22174 13.6744 5.44256 13.4538 5.80354 13.4529C6.41532 13.4515 7.02709 13.4524 7.63887 13.4524L7.63864 13.4529Z" fill="#0352C9"/>
<path d="M13.25 13.4529C13.8543 13.4529 14.4584 13.4524 15.0628 13.4529C15.3091 13.4529 15.5022 13.5482 15.5995 13.7837C15.6315 13.8607 15.6423 13.9511 15.6437 14.0356C15.6486 14.3508 15.6471 14.6661 15.6452 14.9813C15.6432 15.3414 15.4226 15.5627 15.0616 15.5629C13.8457 15.564 12.6296 15.564 11.4137 15.5629C11.0534 15.5624 10.8331 15.3405 10.8313 14.9802C10.8297 14.665 10.8297 14.3497 10.8313 14.0345C10.8331 13.6744 11.0539 13.4538 11.4149 13.4529C12.0266 13.4515 12.6384 13.4524 13.2502 13.4524L13.25 13.4529Z" fill="#0352C9"/>
</svg>
