<svg width="17" height="17" viewBox="0 0 17 17" fill="none" xmlns="http://www.w3.org/2000/svg">
<mask id="mask0_836_1874" style="mask-type:alpha" maskUnits="userSpaceOnUse" x="0" y="0" width="17" height="17">
<rect x="0.5" y="0.261719" width="16" height="16" fill="#061023"/>
</mask>
<g mask="url(#mask0_836_1874)">
<path d="M3.25 8.26172L1.25 4.79505L5.65 2.26172H6.5C6.67778 2.79505 6.88889 3.26172 7.13333 3.66172C7.37778 4.06172 7.83333 4.26172 8.5 4.26172C9.16667 4.26172 9.62222 4.06172 9.86667 3.66172C10.1111 3.26172 10.3222 2.79505 10.5 2.26172H11.35L15.7333 4.81172L13.75 8.26172L12.5 7.57839V10.7784L11.45 11.6951C11.4167 11.7173 11.3722 11.7451 11.3167 11.7784C11.2611 11.8117 11.2111 11.8395 11.1667 11.8617V5.31172L13.25 6.46172L13.9167 5.29505L11.3667 3.81172C11.1 4.35616 10.7083 4.7895 10.1917 5.11172C9.675 5.43394 9.11111 5.59505 8.5 5.59505C7.88889 5.59505 7.325 5.43394 6.80833 5.11172C6.29167 4.7895 5.9 4.35616 5.63333 3.81172L3.06667 5.29505L3.75 6.46172L5.83333 5.31172V9.26172C5.6 9.28394 5.37222 9.32005 5.15 9.37005C4.92778 9.42005 4.71111 9.4895 4.5 9.57839V7.57839L3.25 8.26172ZM3.6 13.1784L2.73333 12.1617L4.18333 10.9284C4.43889 10.7062 4.73056 10.5367 5.05833 10.4201C5.38611 10.3034 5.72778 10.2451 6.08333 10.2451C6.43889 10.2451 6.77778 10.3034 7.1 10.4201C7.42222 10.5367 7.71111 10.7062 7.96667 10.9284L9.9 12.5784C10.0333 12.6895 10.1917 12.7756 10.375 12.8367C10.5583 12.8978 10.7444 12.9284 10.9333 12.9284C11.1333 12.9284 11.3194 12.9006 11.4917 12.8451C11.6639 12.7895 11.8167 12.7006 11.95 12.5784L13.4 11.3284L14.2667 12.3617L12.8167 13.5951C12.5611 13.8173 12.2722 13.9839 11.95 14.0951C11.6278 14.2062 11.2889 14.2617 10.9333 14.2617C10.5778 14.2617 10.2361 14.2062 9.90833 14.0951C9.58056 13.9839 9.28889 13.8173 9.03333 13.5951L7.1 11.9451C6.96667 11.8339 6.81389 11.7478 6.64167 11.6867C6.46944 11.6256 6.28333 11.5951 6.08333 11.5951C5.89444 11.5951 5.70833 11.6256 5.525 11.6867C5.34167 11.7478 5.18333 11.8339 5.05 11.9451L3.6 13.1784Z" fill="#061023"/>
</g>
</svg>
