<svg width="25" height="25" viewBox="0 0 25 25" fill="none" xmlns="http://www.w3.org/2000/svg">
<mask id="mask0_2528_19946" style="mask-type:alpha" maskUnits="userSpaceOnUse" x="0" y="0" width="25" height="25">
<rect x="0.675781" y="0.454102" width="24" height="24" fill="#D9D9D9"/>
</mask>
<g mask="url(#mask0_2528_19946)">
<path d="M4.80078 12.4541L1.80078 7.2541L8.40078 3.4541H9.67578C9.94245 4.2541 10.2591 4.9541 10.6258 5.5541C10.9924 6.1541 11.6758 6.4541 12.6758 6.4541C13.6758 6.4541 14.3591 6.1541 14.7258 5.5541C15.0924 4.9541 15.4091 4.2541 15.6758 3.4541H16.9508L23.5258 7.2791L20.5508 12.4541L18.6758 11.4291V16.2291L17.1008 17.6041C17.0508 17.6374 16.9841 17.6791 16.9008 17.7291C16.8174 17.7791 16.7424 17.8208 16.6758 17.8541V8.0291L19.8008 9.7541L20.8008 8.0041L16.9758 5.7791C16.5758 6.59577 15.9883 7.24577 15.2133 7.7291C14.4383 8.21243 13.5924 8.4541 12.6758 8.4541C11.7591 8.4541 10.9133 8.21243 10.1383 7.7291C9.36328 7.24577 8.77578 6.59577 8.37578 5.7791L4.52578 8.0041L5.55078 9.7541L8.67578 8.0291V13.9541C8.32578 13.9874 7.98411 14.0416 7.65078 14.1166C7.31745 14.1916 6.99245 14.2958 6.67578 14.4291V11.4291L4.80078 12.4541ZM5.32578 19.8291L4.02578 18.3041L6.20078 16.4541C6.58411 16.1208 7.02161 15.8666 7.51328 15.6916C8.00495 15.5166 8.51745 15.4291 9.05078 15.4291C9.58411 15.4291 10.0924 15.5166 10.5758 15.6916C11.0591 15.8666 11.4924 16.1208 11.8758 16.4541L14.7758 18.9291C14.9758 19.0958 15.2133 19.2249 15.4883 19.3166C15.7633 19.4083 16.0424 19.4541 16.3258 19.4541C16.6258 19.4541 16.9049 19.4124 17.1633 19.3291C17.4216 19.2458 17.6508 19.1124 17.8508 18.9291L20.0258 17.0541L21.3258 18.6041L19.1508 20.4541C18.7674 20.7874 18.3341 21.0374 17.8508 21.2041C17.3674 21.3708 16.8591 21.4541 16.3258 21.4541C15.7924 21.4541 15.2799 21.3708 14.7883 21.2041C14.2966 21.0374 13.8591 20.7874 13.4758 20.4541L10.5758 17.9791C10.3758 17.8124 10.1466 17.6833 9.88828 17.5916C9.62995 17.4999 9.35078 17.4541 9.05078 17.4541C8.76745 17.4541 8.48828 17.4999 8.21328 17.5916C7.93828 17.6833 7.70078 17.8124 7.50078 17.9791L5.32578 19.8291Z" fill="#0352C9"/>
</g>
</svg>
