<svg width="25" height="25" viewBox="0 0 25 25" fill="none" xmlns="http://www.w3.org/2000/svg">
<mask id="mask0_2528_19957" style="mask-type:alpha" maskUnits="userSpaceOnUse" x="0" y="0" width="25" height="25">
<rect x="0.675781" y="0.782227" width="24" height="24" fill="#D9D9D9"/>
</mask>
<g mask="url(#mask0_2528_19957)">
<path d="M8.52578 20.9072C6.79245 20.1072 5.37995 18.8989 4.28828 17.2822C3.19661 15.6656 2.65078 13.8406 2.65078 11.8072C2.65078 11.3739 2.67578 10.9489 2.72578 10.5322C2.77578 10.1156 2.85078 9.70723 2.95078 9.30723L1.80078 9.98223L0.800781 8.25723L5.57578 5.50723L8.32578 10.2572L6.57578 11.2572L5.22578 8.90723C5.04245 9.35723 4.90495 9.82389 4.81328 10.3072C4.72161 10.7906 4.67578 11.2906 4.67578 11.8072C4.67578 13.4239 5.11745 14.8947 6.00078 16.2197C6.88411 17.5447 8.05911 18.5239 9.52578 19.1572L8.52578 20.9072ZM16.1758 8.78223V6.78223H18.9008C18.1341 5.83223 17.2091 5.09473 16.1258 4.56973C15.0424 4.04473 13.8924 3.78223 12.6758 3.78223C11.7591 3.78223 10.8924 3.92389 10.0758 4.20723C9.25912 4.49056 8.50911 4.89056 7.82578 5.40723L6.82578 3.65723C7.65911 3.07389 8.56328 2.61556 9.53828 2.28223C10.5133 1.94889 11.5508 1.78223 12.6508 1.78223C13.9674 1.78223 15.2299 2.02806 16.4383 2.51973C17.6466 3.01139 18.7258 3.72389 19.6758 4.65723V3.28223H21.6758V8.78223H16.1758ZM15.5258 23.7822L10.7508 21.0322L13.5008 16.2822L15.2258 17.2822L13.8008 19.7322C15.7674 19.4489 17.4049 18.5614 18.7133 17.0697C20.0216 15.5781 20.6758 13.8239 20.6758 11.8072C20.6758 11.6239 20.6716 11.4489 20.6633 11.2822C20.6549 11.1156 20.6341 10.9489 20.6008 10.7822H22.6258C22.6424 10.9489 22.6549 11.1114 22.6633 11.2697C22.6716 11.4281 22.6758 11.5989 22.6758 11.7822C22.6758 14.0322 22.0049 16.0447 20.6633 17.8197C19.3216 19.5947 17.5758 20.7906 15.4258 21.4072L16.5258 22.0572L15.5258 23.7822Z" fill="#0352C9"/>
</g>
</svg>
