<svg width="14" height="11" viewBox="0 0 14 11" fill="none" xmlns="http://www.w3.org/2000/svg">
<g clip-path="url(#clip0_989_1892)">
<path d="M0 0H14V10.5H0V0Z" fill="#EE1C25"/>
<path d="M1.68004 3.88578L2.62503 1.05078L3.57002 3.88578L1.05005 2.15328H4.20001L1.68004 3.88578Z" fill="#FFFF00"/>
<path d="M5.77872 1.10367L4.80621 1.31919L5.45491 0.563262L5.39129 1.58064L4.8516 0.679954L5.77872 1.10367Z" fill="#FFFF00"/>
<path d="M6.76028 2.34629L5.78031 2.16775L6.67141 1.72259L6.21819 2.63566L6.07006 1.59616L6.76028 2.34629Z" fill="#FFFF00"/>
<path d="M6.61718 4.09309L5.79523 3.53039L6.79041 3.48738L6.00421 4.13621L6.29292 3.12668L6.61718 4.09309Z" fill="#FFFF00"/>
<path d="M5.38103 5.23525L4.84019 4.39875L5.77476 4.74345L4.79897 5.03827L5.45518 4.21859L5.38103 5.23525Z" fill="#FFFF00"/>
</g>
<defs>
<clipPath id="clip0_989_1892">
<rect width="14" height="10.5" fill="white"/>
</clipPath>
</defs>
</svg>
