<svg width="16" height="17" viewBox="0 0 16 17" fill="none" xmlns="http://www.w3.org/2000/svg">
<mask id="mask0_836_1877" style="mask-type:alpha" maskUnits="userSpaceOnUse" x="0" y="0" width="16" height="17">
<rect y="0.261719" width="16" height="16" fill="#061023"/>
</mask>
<g mask="url(#mask0_836_1877)">
<path d="M5.23325 13.6797C4.0777 13.1464 3.13603 12.3408 2.40825 11.263C1.68047 10.1852 1.31659 8.96858 1.31659 7.61302C1.31659 7.32413 1.33325 7.0408 1.36659 6.76302C1.39992 6.48524 1.44992 6.21302 1.51659 5.94635L0.749919 6.39635L0.083252 5.24635L3.26659 3.41302L5.09992 6.57969L3.93325 7.24635L3.03325 5.67969C2.91103 5.97969 2.81936 6.2908 2.75825 6.61302C2.69714 6.93524 2.66659 7.26858 2.66659 7.61302C2.66659 8.6908 2.96103 9.67135 3.54992 10.5547C4.13881 11.438 4.92214 12.0908 5.89992 12.513L5.23325 13.6797ZM10.3333 5.59635V4.26302H12.1499C11.6388 3.62969 11.0221 3.13802 10.2999 2.78802C9.5777 2.43802 8.81103 2.26302 7.99992 2.26302C7.38881 2.26302 6.81103 2.35747 6.26659 2.54635C5.72214 2.73524 5.22214 3.00191 4.76659 3.34635L4.09992 2.17969C4.65547 1.7908 5.25825 1.48524 5.90825 1.26302C6.55825 1.0408 7.24992 0.929688 7.98325 0.929688C8.86103 0.929688 9.7027 1.09358 10.5083 1.42135C11.3138 1.74913 12.0333 2.22413 12.6666 2.84635V1.92969H13.9999V5.59635H10.3333ZM9.89992 15.5964L6.71659 13.763L8.54992 10.5964L9.69992 11.263L8.74992 12.8964C10.061 12.7075 11.1527 12.1158 12.0249 11.1214C12.8971 10.1269 13.3333 8.95747 13.3333 7.61302C13.3333 7.4908 13.3305 7.37413 13.3249 7.26302C13.3194 7.15191 13.3055 7.0408 13.2833 6.92969H14.6333C14.6444 7.0408 14.6527 7.14913 14.6583 7.25469C14.6638 7.36024 14.6666 7.47413 14.6666 7.59635C14.6666 9.09635 14.2194 10.438 13.3249 11.6214C12.4305 12.8047 11.2666 13.6019 9.83325 14.013L10.5666 14.4464L9.89992 15.5964Z" fill="#061023"/>
</g>
</svg>
