<svg width="16" height="17" viewBox="0 0 16 17" fill="none" xmlns="http://www.w3.org/2000/svg">
<path d="M13.0558 1.30701C13.626 1.30701 14.0867 1.76768 14.0867 2.33789V14.7085C14.0867 15.2787 13.626 15.7394 13.0558 15.7394H2.74695C2.17674 15.7394 1.71606 15.2787 1.71606 14.7085V2.33789C1.71606 1.76768 2.17674 1.30701 2.74695 1.30701H13.0558ZM2.74695 0.276123C1.60975 0.276123 0.685181 1.2007 0.685181 2.33789V14.7085C0.685181 15.8457 1.60975 16.7703 2.74695 16.7703H13.0558C14.193 16.7703 15.1176 15.8457 15.1176 14.7085V2.33789C15.1176 1.2007 14.193 0.276123 13.0558 0.276123H2.74695ZM3.77783 13.1622C3.77783 13.4457 4.00978 13.6776 4.29327 13.6776H11.5095C11.793 13.6776 12.0249 13.4457 12.0249 13.1622C12.0249 12.8787 11.793 12.6467 11.5095 12.6467H4.29327C4.00978 12.6467 3.77783 12.8787 3.77783 13.1622ZM4.8506 6.97687H6.11021C6.16175 7.95621 6.35826 8.71004 6.58055 9.2577C5.68175 8.83246 5.02134 7.98842 4.8506 6.97687ZM7.90137 9.55408H7.8917C7.81439 9.44132 7.70808 9.26736 7.59855 9.02253C7.40525 8.5844 7.19908 7.91755 7.14109 6.97687H8.65842C8.60044 7.91755 8.39748 8.5844 8.20097 9.02253C8.09144 9.26736 7.98513 9.44132 7.90781 9.55408H7.89815H7.90137ZM10.9521 6.97687C10.7814 7.98842 10.121 8.83246 9.22219 9.2577C9.44125 8.70682 9.63776 7.95621 9.69253 6.97687H10.9521ZM10.9521 5.94598H9.69253C9.64098 4.96664 9.44447 4.21281 9.22219 3.66515C10.121 4.09039 10.7814 4.93443 10.9521 5.94598ZM7.90137 3.36877H7.91103C7.98835 3.48153 8.09466 3.65549 8.20419 3.90032C8.39748 4.33845 8.60366 5.0053 8.66164 5.94598H7.14431C7.2023 5.0053 7.40525 4.33845 7.60177 3.90032C7.7113 3.65549 7.81761 3.48153 7.89492 3.36877H7.90459H7.90137ZM4.8506 5.94598C5.02134 4.93443 5.68175 4.09039 6.58055 3.66515C6.36148 4.21603 6.16497 4.96664 6.11021 5.94598H4.8506ZM7.90137 10.585C8.995 10.585 10.0438 10.1505 10.8171 9.37721C11.5905 8.60389 12.0249 7.55506 12.0249 6.46143C12.0249 5.3678 11.5905 4.31896 10.8171 3.54565C10.0438 2.77233 8.995 2.33789 7.90137 2.33789C6.80774 2.33789 5.7589 2.77233 4.98559 3.54565C4.21227 4.31896 3.77783 5.3678 3.77783 6.46143C3.77783 7.55506 4.21227 8.60389 4.98559 9.37721C5.7589 10.1505 6.80774 10.585 7.90137 10.585Z" fill="#88898B"/>
</svg>
