<svg width="18" height="18" viewBox="0 0 18 18" fill="none" xmlns="http://www.w3.org/2000/svg">
<path d="M9 16.3125C10.4463 16.3125 11.8601 15.8836 13.0626 15.0801C14.2651 14.2766 15.2024 13.1346 15.7559 11.7984C16.3093 10.4622 16.4541 8.99189 16.172 7.5734C15.8898 6.15492 15.1934 4.85195 14.1707 3.82928C13.148 2.80661 11.8451 2.11016 10.4266 1.82801C9.00811 1.54585 7.53781 1.69067 6.20162 2.24413C4.86544 2.7976 3.72338 3.73486 2.91988 4.93739C2.11637 6.13993 1.6875 7.55372 1.6875 9C1.68954 10.9388 2.46062 12.7975 3.83154 14.1685C5.20246 15.5394 7.06123 16.3105 9 16.3125ZM5.78953 7.47703C5.84177 7.42473 5.90381 7.38324 5.97209 7.35493C6.04038 7.32663 6.11358 7.31206 6.1875 7.31206C6.26142 7.31206 6.33461 7.32663 6.4029 7.35493C6.47119 7.38324 6.53323 7.42473 6.58547 7.47703L9 9.89227L11.4145 7.47703C11.4668 7.42477 11.5288 7.38331 11.5971 7.35503C11.6654 7.32675 11.7386 7.31219 11.8125 7.31219C11.8864 7.31219 11.9596 7.32675 12.0279 7.35503C12.0962 7.38331 12.1582 7.42477 12.2105 7.47703C12.2627 7.52929 12.3042 7.59134 12.3325 7.65962C12.3608 7.7279 12.3753 7.80109 12.3753 7.875C12.3753 7.94891 12.3608 8.0221 12.3325 8.09038C12.3042 8.15866 12.2627 8.22071 12.2105 8.27297L9.39797 11.0855C9.34572 11.1378 9.28369 11.1793 9.2154 11.2076C9.14711 11.2359 9.07392 11.2504 9 11.2504C8.92608 11.2504 8.85288 11.2359 8.78459 11.2076C8.71631 11.1793 8.65427 11.1378 8.60203 11.0855L5.78953 8.27297C5.73723 8.22073 5.69574 8.15869 5.66743 8.0904C5.63912 8.02212 5.62455 7.94892 5.62455 7.875C5.62455 7.80108 5.63912 7.72788 5.66743 7.6596C5.69574 7.59131 5.73723 7.52927 5.78953 7.47703Z" fill="#001390"/>
</svg>
