<svg width="21" height="20" viewBox="0 0 21 20" fill="none" xmlns="http://www.w3.org/2000/svg">
<path d="M10.4353 2.19504C12.3624 2.19504 14.2895 2.19504 16.2161 2.19504C17.3991 2.19504 18.2393 3.03564 18.2393 4.22019C18.2393 8.07435 18.2397 11.928 18.2393 15.7822C18.2393 16.9648 17.3972 17.8054 16.2136 17.8054C12.3595 17.8054 8.50578 17.8059 4.65161 17.8054C3.47097 17.8054 2.62891 16.9628 2.62891 15.7802C2.62891 11.9261 2.62891 8.0724 2.62891 4.21823C2.62891 3.0371 3.47194 2.19553 4.65454 2.19504C6.58162 2.19455 8.5087 2.19504 10.4353 2.19504ZM10.4392 3.50399C8.537 3.50399 6.63431 3.50399 4.73211 3.50399C4.14276 3.50399 3.93835 3.70744 3.93786 4.29385C3.93786 8.09874 3.93786 11.9036 3.93786 15.7085C3.93786 16.292 4.1452 16.4969 4.73357 16.4969C8.53017 16.4969 12.3268 16.4969 16.1239 16.4969C16.7254 16.4969 16.9303 16.293 16.9303 15.6944C16.9303 11.8978 16.9303 8.10118 16.9303 4.3041C16.9303 3.70451 16.7273 3.50399 16.1219 3.50399C14.2275 3.50399 12.3331 3.50399 10.4392 3.50399Z" fill="#0352C9"/>
<path d="M10.4581 6.08999C11.7666 6.08999 13.0745 6.08902 14.383 6.08999C14.9162 6.08999 15.3344 6.29636 15.5451 6.80618C15.6144 6.97303 15.6378 7.16867 15.6407 7.35162C15.6515 8.03415 15.6481 8.71668 15.6441 9.39921C15.6398 10.1788 15.1621 10.6579 14.3806 10.6584C11.748 10.6608 9.11499 10.6608 6.48245 10.6584C5.70235 10.6574 5.22521 10.1769 5.22131 9.39677C5.2179 8.71424 5.2179 8.03171 5.22131 7.34918C5.22521 6.56957 5.70333 6.09194 6.48489 6.08999C7.80946 6.08706 9.13402 6.08902 10.4586 6.08902L10.4581 6.08999Z" fill="#0352C9"/>
</svg>
