<svg width="25" height="25" viewBox="0 0 25 25" fill="none" xmlns="http://www.w3.org/2000/svg">
<mask id="mask0_2528_19951" style="mask-type:alpha" maskUnits="userSpaceOnUse" x="0" y="0" width="25" height="25">
<rect x="0.675781" y="0.618164" width="24" height="24" fill="#D9D9D9"/>
</mask>
<g mask="url(#mask0_2528_19951)">
<path d="M6.07578 20.2183C5.32578 19.4683 4.73828 18.6016 4.31328 17.6183C3.88828 16.635 3.67578 15.6183 3.67578 14.5683C3.67578 13.5183 3.87578 12.4808 4.27578 11.4558C4.67578 10.4308 5.32578 9.46828 6.22578 8.56828C6.80911 7.98495 7.52995 7.48495 8.38828 7.06828C9.24661 6.65162 10.2633 6.32245 11.4383 6.08078C12.6133 5.83912 13.9549 5.69328 15.4633 5.64328C16.9716 5.59328 18.6591 5.65162 20.5258 5.81828C20.6591 7.58495 20.7008 9.20995 20.6508 10.6933C20.6008 12.1766 20.4633 13.5141 20.2383 14.7058C20.0133 15.8975 19.6966 16.9391 19.2883 17.8308C18.8799 18.7225 18.3758 19.4683 17.7758 20.0683C16.8924 20.9516 15.9549 21.5974 14.9633 22.0058C13.9716 22.4141 12.9591 22.6183 11.9258 22.6183C10.8424 22.6183 9.78411 22.4058 8.75078 21.9808C7.71745 21.5558 6.82578 20.9683 6.07578 20.2183ZM8.87578 19.8183C9.35911 20.1016 9.85495 20.3058 10.3633 20.4308C10.8716 20.5558 11.3924 20.6183 11.9258 20.6183C12.6924 20.6183 13.4508 20.4641 14.2008 20.1558C14.9508 19.8475 15.6674 19.3516 16.3508 18.6683C16.6508 18.3683 16.9549 17.9475 17.2633 17.4058C17.5716 16.8641 17.8383 16.1558 18.0633 15.2808C18.2883 14.4058 18.4591 13.3475 18.5758 12.1058C18.6924 10.8641 18.7091 9.38495 18.6258 7.66828C17.8091 7.63495 16.8883 7.62245 15.8633 7.63078C14.8383 7.63912 13.8174 7.71828 12.8008 7.86828C11.7841 8.01828 10.8174 8.25995 9.90078 8.59328C8.98411 8.92662 8.23411 9.38495 7.65078 9.96828C6.90078 10.7183 6.38411 11.46 6.10078 12.1933C5.81745 12.9266 5.67578 13.635 5.67578 14.3183C5.67578 15.3016 5.86328 16.1641 6.23828 16.9058C6.61328 17.6475 6.94245 18.1683 7.22578 18.4683C7.92578 17.135 8.85078 15.8558 10.0008 14.6308C11.1508 13.4058 12.4924 12.4016 14.0258 11.6183C12.8258 12.6683 11.7799 13.8558 10.8883 15.1808C9.99661 16.5058 9.32578 18.0516 8.87578 19.8183Z" fill="#0352C9"/>
</g>
</svg>
