<svg width="16" height="17" viewBox="0 0 16 17" fill="none" xmlns="http://www.w3.org/2000/svg">
<mask id="mask0_836_1871" style="mask-type:alpha" maskUnits="userSpaceOnUse" x="0" y="0" width="16" height="17">
<rect y="0.261719" width="16" height="16" fill="#D9D9D9"/>
</mask>
<g mask="url(#mask0_836_1871)">
<path d="M3.6 13.3298C3.1 12.8298 2.70833 12.252 2.425 11.5964C2.14167 10.9409 2 10.2631 2 9.5631C2 8.8631 2.13333 8.17143 2.4 7.4881C2.66667 6.80477 3.1 6.1631 3.7 5.5631C4.08889 5.17421 4.56944 4.84088 5.14167 4.5631C5.71389 4.28532 6.39167 4.06588 7.175 3.90477C7.95833 3.74366 8.85278 3.64643 9.85833 3.6131C10.8639 3.57977 11.9889 3.61866 13.2333 3.72977C13.3222 4.90755 13.35 5.99088 13.3167 6.97977C13.2833 7.96866 13.1917 8.86032 13.0417 9.65477C12.8917 10.4492 12.6806 11.1437 12.4083 11.7381C12.1361 12.3325 11.8 12.8298 11.4 13.2298C10.8111 13.8187 10.1861 14.2492 9.525 14.5214C8.86389 14.7937 8.18889 14.9298 7.5 14.9298C6.77778 14.9298 6.07222 14.7881 5.38333 14.5048C4.69444 14.2214 4.1 13.8298 3.6 13.3298ZM5.46667 13.0631C5.78889 13.252 6.11944 13.3881 6.45833 13.4714C6.79722 13.5548 7.14444 13.5964 7.5 13.5964C8.01111 13.5964 8.51667 13.4937 9.01667 13.2881C9.51667 13.0825 9.99444 12.752 10.45 12.2964C10.65 12.0964 10.8528 11.8159 11.0583 11.4548C11.2639 11.0937 11.4417 10.6214 11.5917 10.0381C11.7417 9.45477 11.8556 8.74921 11.9333 7.92143C12.0111 7.09366 12.0222 6.10755 11.9667 4.9631C11.4222 4.94088 10.8083 4.93255 10.125 4.9381C9.44167 4.94366 8.76111 4.99643 8.08333 5.09643C7.40556 5.19643 6.76111 5.35755 6.15 5.57977C5.53889 5.80199 5.03889 6.10755 4.65 6.49643C4.15 6.99643 3.80556 7.49088 3.61667 7.97977C3.42778 8.46866 3.33333 8.94088 3.33333 9.39643C3.33333 10.052 3.45833 10.627 3.70833 11.1214C3.95833 11.6159 4.17778 11.9631 4.36667 12.1631C4.83333 11.2742 5.45 10.4214 6.21667 9.60477C6.98333 8.7881 7.87778 8.11866 8.9 7.59643C8.1 8.29643 7.40278 9.0881 6.80833 9.97143C6.21389 10.8548 5.76667 11.8853 5.46667 13.0631Z" fill="#061023"/>
</g>
</svg>
