<svg width="18" height="16" viewBox="0 0 18 16" fill="none" xmlns="http://www.w3.org/2000/svg">
<path d="M10.2988 0V3.84771L13.6571 1.92646L10.2988 0Z" fill="#0C2045"/>
<path opacity="0.9" d="M13.657 1.92651V5.77943L17.0205 3.84777L13.657 1.92651Z" fill="#0C2045"/>
<path opacity="0.8" d="M10.2988 3.84778V7.7007L13.6571 5.77944L10.2988 3.84778Z" fill="#0C2045"/>
<path opacity="0.8" d="M13.657 5.77942V9.62713L17.0205 7.70067L13.657 5.77942Z" fill="#0C2045"/>
<path opacity="0.8" d="M10.2988 7.70068V11.5536L13.6571 9.62714L10.2988 7.70068Z" fill="#0C2045"/>
<path d="M13.657 9.62708V13.48L17.0205 11.5535L13.657 9.62708Z" fill="#0C2045"/>
<path opacity="0.4" d="M1.61405 3.72278V7.57049L4.97233 5.64403L1.61405 3.72278Z" fill="#0C2045"/>
<path opacity="0.2" d="M5.85226 5.14929V9.00221L9.20534 7.08096L5.85226 5.14929Z" fill="#0C2045"/>
<path opacity="0.3" d="M3.36349 7.58606V11.439L6.72178 9.51252L3.36349 7.58606Z" fill="#0C2045"/>
<path opacity="0.9" d="M5.57632 10.4913V14.3443L8.9294 12.4178L5.57632 10.4913Z" fill="#0C2045"/>
<path opacity="0.7" d="M10.2727 12.1522V15.9999L13.6258 14.0735L10.2727 12.1522Z" fill="#0C2045"/>
<path opacity="0.9" d="M6.41458 3.2489V7.10182L9.76766 5.18057L6.41458 3.2489Z" fill="#0C2045"/>
<path opacity="0.8" d="M10.2987 0V3.84771L6.94046 1.92646L10.2987 0Z" fill="#0C2045"/>
<path opacity="0.6" d="M6.41458 1.63489V5.48781L3.05109 3.55614L6.41458 1.63489Z" fill="#0C2045"/>
<path opacity="0.6" d="M9.77287 3.54053V7.39345L6.41458 5.46699L9.77287 3.54053Z" fill="#0C2045"/>
<path opacity="0.95" d="M5.83666 5.14929V9.00221L2.47837 7.08096L5.83666 5.14929Z" fill="#0C2045"/>
<path opacity="0.6" d="M10.2987 7.70068V11.5536L6.94565 9.62714L10.2987 7.70068Z" fill="#0C2045"/>
<path opacity="0.55" d="M3.36349 8.59619V12.4491L0 10.5227L3.36349 8.59619Z" fill="#0C2045"/>
<path d="M17.0205 3.84778V7.7007L13.657 5.77944L17.0205 3.84778Z" fill="#0C2045"/>
<path opacity="0.95" d="M13.6571 5.77942V9.62713L10.2988 7.70067L13.6571 5.77942Z" fill="#0C2045"/>
<path opacity="0.9" d="M17.0205 7.70068V11.5536L13.657 9.62714L17.0205 7.70068Z" fill="#0C2045"/>
<path opacity="0.7" d="M13.6571 9.62708V13.48L10.2988 11.5535L13.6571 9.62708Z" fill="#0C2045"/>
<path opacity="0.4" d="M9.55419 11.2307V15.0836L6.1959 13.1624L9.55419 11.2307Z" fill="#0C2045"/>
<path d="M13.6571 1.92651V5.77943L10.2988 3.84777L13.6571 1.92651Z" fill="#0C2045"/>
</svg>
