<svg width="17" height="17" viewBox="0 0 17 17" fill="none" xmlns="http://www.w3.org/2000/svg">
<mask id="mask0_836_1868" style="mask-type:alpha" maskUnits="userSpaceOnUse" x="0" y="0" width="17" height="17">
<rect x="0.5" y="0.261719" width="16" height="16" fill="#D9D9D9"/>
</mask>
<g mask="url(#mask0_836_1868)">
<path d="M8.49992 14.9271C7.58881 14.9271 6.7277 14.7521 5.91659 14.4021C5.10547 14.0521 4.39714 13.5743 3.79159 12.9688C3.18603 12.3632 2.70825 11.6549 2.35825 10.8438C2.00825 10.0326 1.83325 9.17153 1.83325 8.26042C1.83325 7.33819 2.00825 6.47431 2.35825 5.66875C2.70825 4.86319 3.18603 4.15764 3.79159 3.55208C4.39714 2.94653 5.10547 2.46875 5.91659 2.11875C6.7277 1.76875 7.58881 1.59375 8.49992 1.59375C9.42214 1.59375 10.286 1.76875 11.0916 2.11875C11.8971 2.46875 12.6027 2.94653 13.2083 3.55208C13.8138 4.15764 14.2916 4.86319 14.6416 5.66875C14.9916 6.47431 15.1666 7.33819 15.1666 8.26042C15.1666 9.17153 14.9916 10.0326 14.6416 10.8438C14.2916 11.6549 13.8138 12.3632 13.2083 12.9688C12.6027 13.5743 11.8971 14.0521 11.0916 14.4021C10.286 14.7521 9.42214 14.9271 8.49992 14.9271ZM8.49992 13.5604C8.78881 13.1604 9.03881 12.7438 9.24992 12.3104C9.46103 11.8771 9.63325 11.416 9.76659 10.9271H7.23325C7.36659 11.416 7.53881 11.8771 7.74992 12.3104C7.96103 12.7438 8.21103 13.1604 8.49992 13.5604ZM6.76659 13.2938C6.56659 12.9271 6.39159 12.5465 6.24159 12.1521C6.09159 11.7576 5.96659 11.3493 5.86659 10.9271H3.89992C4.22214 11.4826 4.62492 11.966 5.10825 12.3771C5.59159 12.7882 6.14436 13.0938 6.76659 13.2938ZM10.2333 13.2938C10.8555 13.0938 11.4083 12.7882 11.8916 12.3771C12.3749 11.966 12.7777 11.4826 13.0999 10.9271H11.1333C11.0333 11.3493 10.9083 11.7576 10.7583 12.1521C10.6083 12.5465 10.4333 12.9271 10.2333 13.2938ZM3.33325 9.59375H5.59992C5.56659 9.37153 5.54159 9.15208 5.52492 8.93542C5.50825 8.71875 5.49992 8.49375 5.49992 8.26042C5.49992 8.02708 5.50825 7.80208 5.52492 7.58542C5.54159 7.36875 5.56659 7.14931 5.59992 6.92708H3.33325C3.2777 7.14931 3.23603 7.36875 3.20825 7.58542C3.18047 7.80208 3.16659 8.02708 3.16659 8.26042C3.16659 8.49375 3.18047 8.71875 3.20825 8.93542C3.23603 9.15208 3.2777 9.37153 3.33325 9.59375ZM6.93325 9.59375H10.0666C10.0999 9.37153 10.1249 9.15208 10.1416 8.93542C10.1583 8.71875 10.1666 8.49375 10.1666 8.26042C10.1666 8.02708 10.1583 7.80208 10.1416 7.58542C10.1249 7.36875 10.0999 7.14931 10.0666 6.92708H6.93325C6.89992 7.14931 6.87492 7.36875 6.85825 7.58542C6.84159 7.80208 6.83325 8.02708 6.83325 8.26042C6.83325 8.49375 6.84159 8.71875 6.85825 8.93542C6.87492 9.15208 6.89992 9.37153 6.93325 9.59375ZM11.3999 9.59375H13.6666C13.7221 9.37153 13.7638 9.15208 13.7916 8.93542C13.8194 8.71875 13.8333 8.49375 13.8333 8.26042C13.8333 8.02708 13.8194 7.80208 13.7916 7.58542C13.7638 7.36875 13.7221 7.14931 13.6666 6.92708H11.3999C11.4333 7.14931 11.4583 7.36875 11.4749 7.58542C11.4916 7.80208 11.4999 8.02708 11.4999 8.26042C11.4999 8.49375 11.4916 8.71875 11.4749 8.93542C11.4583 9.15208 11.4333 9.37153 11.3999 9.59375ZM11.1333 5.59375H13.0999C12.7777 5.03819 12.3749 4.55486 11.8916 4.14375C11.4083 3.73264 10.8555 3.42708 10.2333 3.22708C10.4333 3.59375 10.6083 3.97431 10.7583 4.36875C10.9083 4.76319 11.0333 5.17153 11.1333 5.59375ZM7.23325 5.59375H9.76659C9.63325 5.10486 9.46103 4.64375 9.24992 4.21042C9.03881 3.77708 8.78881 3.36042 8.49992 2.96042C8.21103 3.36042 7.96103 3.77708 7.74992 4.21042C7.53881 4.64375 7.36659 5.10486 7.23325 5.59375ZM3.89992 5.59375H5.86659C5.96659 5.17153 6.09159 4.76319 6.24159 4.36875C6.39159 3.97431 6.56659 3.59375 6.76659 3.22708C6.14436 3.42708 5.59159 3.73264 5.10825 4.14375C4.62492 4.55486 4.22214 5.03819 3.89992 5.59375Z" fill="white"/>
</g>
</svg>
