<svg width="25" height="25" viewBox="0 0 25 25" fill="none" xmlns="http://www.w3.org/2000/svg">
<mask id="mask0_2528_19963" style="mask-type:alpha" maskUnits="userSpaceOnUse" x="0" y="0" width="25" height="25">
<rect x="0.675781" y="0.946289" width="24" height="24" fill="#D9D9D9"/>
</mask>
<g mask="url(#mask0_2528_19963)">
<path d="M12.6758 22.9463C11.3091 22.9463 10.0174 22.6838 8.80078 22.1588C7.58411 21.6338 6.52161 20.9171 5.61328 20.0088C4.70495 19.1005 3.98828 18.038 3.46328 16.8213C2.93828 15.6046 2.67578 14.313 2.67578 12.9463C2.67578 11.563 2.93828 10.2671 3.46328 9.05879C3.98828 7.85046 4.70495 6.79212 5.61328 5.88379C6.52161 4.97546 7.58411 4.25879 8.80078 3.73379C10.0174 3.20879 11.3091 2.94629 12.6758 2.94629C14.0591 2.94629 15.3549 3.20879 16.5633 3.73379C17.7716 4.25879 18.8299 4.97546 19.7383 5.88379C20.6466 6.79212 21.3633 7.85046 21.8883 9.05879C22.4133 10.2671 22.6758 11.563 22.6758 12.9463C22.6758 14.313 22.4133 15.6046 21.8883 16.8213C21.3633 18.038 20.6466 19.1005 19.7383 20.0088C18.8299 20.9171 17.7716 21.6338 16.5633 22.1588C15.3549 22.6838 14.0591 22.9463 12.6758 22.9463ZM12.6758 20.8963C13.1091 20.2963 13.4841 19.6713 13.8008 19.0213C14.1174 18.3713 14.3758 17.6796 14.5758 16.9463H10.7758C10.9758 17.6796 11.2341 18.3713 11.5508 19.0213C11.8674 19.6713 12.2424 20.2963 12.6758 20.8963ZM10.0758 20.4963C9.77578 19.9463 9.51328 19.3755 9.28828 18.7838C9.06328 18.1921 8.87578 17.5796 8.72578 16.9463H5.77578C6.25911 17.7796 6.86328 18.5046 7.58828 19.1213C8.31328 19.738 9.14245 20.1963 10.0758 20.4963ZM15.2758 20.4963C16.2091 20.1963 17.0383 19.738 17.7633 19.1213C18.4883 18.5046 19.0924 17.7796 19.5758 16.9463H16.6258C16.4758 17.5796 16.2883 18.1921 16.0633 18.7838C15.8383 19.3755 15.5758 19.9463 15.2758 20.4963ZM4.92578 14.9463H8.32578C8.27578 14.613 8.23828 14.2838 8.21328 13.9588C8.18828 13.6338 8.17578 13.2963 8.17578 12.9463C8.17578 12.5963 8.18828 12.2588 8.21328 11.9338C8.23828 11.6088 8.27578 11.2796 8.32578 10.9463H4.92578C4.84245 11.2796 4.77995 11.6088 4.73828 11.9338C4.69661 12.2588 4.67578 12.5963 4.67578 12.9463C4.67578 13.2963 4.69661 13.6338 4.73828 13.9588C4.77995 14.2838 4.84245 14.613 4.92578 14.9463ZM10.3258 14.9463H15.0258C15.0758 14.613 15.1133 14.2838 15.1383 13.9588C15.1633 13.6338 15.1758 13.2963 15.1758 12.9463C15.1758 12.5963 15.1633 12.2588 15.1383 11.9338C15.1133 11.6088 15.0758 11.2796 15.0258 10.9463H10.3258C10.2758 11.2796 10.2383 11.6088 10.2133 11.9338C10.1883 12.2588 10.1758 12.5963 10.1758 12.9463C10.1758 13.2963 10.1883 13.6338 10.2133 13.9588C10.2383 14.2838 10.2758 14.613 10.3258 14.9463ZM17.0258 14.9463H20.4258C20.5091 14.613 20.5716 14.2838 20.6133 13.9588C20.6549 13.6338 20.6758 13.2963 20.6758 12.9463C20.6758 12.5963 20.6549 12.2588 20.6133 11.9338C20.5716 11.6088 20.5091 11.2796 20.4258 10.9463H17.0258C17.0758 11.2796 17.1133 11.6088 17.1383 11.9338C17.1633 12.2588 17.1758 12.5963 17.1758 12.9463C17.1758 13.2963 17.1633 13.6338 17.1383 13.9588C17.1133 14.2838 17.0758 14.613 17.0258 14.9463ZM16.6258 8.94629H19.5758C19.0924 8.11296 18.4883 7.38796 17.7633 6.77129C17.0383 6.15462 16.2091 5.69629 15.2758 5.39629C15.5758 5.94629 15.8383 6.51712 16.0633 7.10879C16.2883 7.70046 16.4758 8.31296 16.6258 8.94629ZM10.7758 8.94629H14.5758C14.3758 8.21296 14.1174 7.52129 13.8008 6.87129C13.4841 6.22129 13.1091 5.59629 12.6758 4.99629C12.2424 5.59629 11.8674 6.22129 11.5508 6.87129C11.2341 7.52129 10.9758 8.21296 10.7758 8.94629ZM5.77578 8.94629H8.72578C8.87578 8.31296 9.06328 7.70046 9.28828 7.10879C9.51328 6.51712 9.77578 5.94629 10.0758 5.39629C9.14245 5.69629 8.31328 6.15462 7.58828 6.77129C6.86328 7.38796 6.25911 8.11296 5.77578 8.94629Z" fill="#0352C9"/>
</g>
</svg>
