<svg width="61" height="16" viewBox="0 0 61 16" fill="none" xmlns="http://www.w3.org/2000/svg">
<path d="M23.632 3.96741C23.7882 3.96741 23.8663 4.04551 23.8663 4.20171V11.2151C23.8663 11.3765 23.7882 11.4494 23.632 11.4494H22.4917C22.3303 11.4494 22.247 11.3713 22.247 11.2151V4.20171C22.247 4.0403 22.3303 3.96741 22.4917 3.96741H23.632Z" fill="#0C2045"/>
<path d="M30.6402 5.58142C31.114 5.58142 31.5097 5.61787 31.8325 5.70117C32.1553 5.78448 32.4104 5.90944 32.6083 6.08646C32.8063 6.26985 32.9503 6.50392 33.0248 6.76333C33.1133 7.03928 33.1498 7.3673 33.1498 7.75259V9.28855C33.1564 9.62263 33.1143 9.95588 33.0248 10.2778C32.9483 10.5363 32.8046 10.7699 32.6083 10.9547C32.4156 11.1317 32.1553 11.2567 31.8325 11.3348C31.5097 11.4129 31.114 11.4493 30.6402 11.4493H27.6567C27.1777 11.4493 26.7768 11.4129 26.4592 11.3348C26.1416 11.2567 25.8813 11.1317 25.6886 10.9547C25.4923 10.7699 25.3486 10.5363 25.2721 10.2778C25.1826 9.95588 25.1405 9.62263 25.1471 9.28855V7.75259C25.1405 7.41852 25.1826 7.08526 25.2721 6.76333C25.3486 6.50483 25.4923 6.27126 25.6886 6.08646C25.8813 5.90944 26.1364 5.78448 26.4592 5.70117C26.782 5.61787 27.1777 5.58142 27.6567 5.58142H30.6402ZM26.6519 9.02301C26.6473 9.21356 26.6648 9.404 26.7039 9.59054C26.7322 9.72417 26.795 9.84804 26.8862 9.9498C26.9845 10.045 27.1069 10.1116 27.2402 10.1424C27.4228 10.1854 27.6098 10.2064 27.7973 10.2049H30.4944C30.6856 10.2125 30.8769 10.1915 31.0619 10.1424C31.1952 10.1116 31.3176 10.045 31.4159 9.9498C31.5108 9.85067 31.5743 9.72567 31.5982 9.59054C31.6376 9.40404 31.6551 9.21357 31.6502 9.02301V8.00772C31.6546 7.82234 31.6371 7.6371 31.5982 7.45581C31.5675 7.32147 31.505 7.19646 31.4159 7.09135C31.3204 6.99245 31.1968 6.92522 31.0619 6.8987C30.8752 6.85982 30.685 6.84063 30.4944 6.84143H27.8025C27.6151 6.83531 27.4277 6.85458 27.2454 6.8987C27.1113 6.9274 26.9883 6.99431 26.8914 7.09135C26.7974 7.19317 26.7342 7.31955 26.7091 7.45581C26.6702 7.6371 26.6527 7.82234 26.6571 8.00772V9.02301H26.6519Z" fill="#0C2045"/>
<path d="M42.4644 3.96741C42.6258 3.96741 42.7091 4.04551 42.7091 4.20171V5.24824C42.7091 5.41485 42.6258 5.49295 42.4644 5.49295H39.1478V11.2099C39.1478 11.3713 39.0697 11.4442 38.9135 11.4442H37.7628C37.6066 11.4442 37.5285 11.3661 37.5285 11.2099V5.49295H34.2119C34.0505 5.49295 33.9672 5.40965 33.9672 5.24824V4.20171C33.9672 4.0403 34.0505 3.96741 34.2119 3.96741H42.4644Z" fill="#0C2045"/>
<path d="M48.7801 5.5814C49.0811 5.57366 49.382 5.60339 49.6757 5.66991C49.8838 5.71283 50.0749 5.81546 50.2256 5.96526C50.3763 6.11506 50.4801 6.30553 50.5243 6.51339C50.5847 6.78164 50.6144 7.05588 50.6128 7.33083V8.34613C50.6128 8.57522 50.566 8.73142 50.4671 8.82514C50.3681 8.91886 50.2171 8.95531 50.0141 8.95531H44.6773V9.21564C44.6773 9.54886 44.7606 9.79358 44.9168 9.93936C45.073 10.0852 45.3854 10.1632 45.8384 10.1632H50.238C50.3629 10.1632 50.4254 10.2309 50.4254 10.3559V11.2566C50.4254 11.3816 50.3629 11.4493 50.238 11.4493H45.6874C45.2083 11.4493 44.8074 11.4128 44.4898 11.3347C44.1722 11.2566 43.9171 11.1317 43.7192 10.9547C43.523 10.7699 43.3792 10.5363 43.3027 10.2778C43.2142 10.0018 43.1778 9.67383 43.1778 9.28853V7.75257C43.1711 7.4185 43.2132 7.08524 43.3027 6.76331C43.3792 6.50481 43.523 6.27124 43.7192 6.08644C43.9119 5.90942 44.167 5.78446 44.4898 5.70115C44.8126 5.61785 45.2083 5.5814 45.6874 5.5814H48.7801ZM44.6721 8.0077H48.9467C49.0665 8.0077 49.1237 7.94522 49.1237 7.82546V7.37769C49.1237 7.15901 49.0821 6.99761 48.9884 6.90389C48.8947 6.81017 48.728 6.76851 48.4833 6.76851H45.8331C45.3802 6.76851 45.0678 6.84141 44.9116 6.98719C44.7554 7.13298 44.6721 7.37769 44.6721 7.71613V8.0077Z" fill="#0C2045"/>
<path d="M59.9848 3.9675C60.0837 3.9675 60.1358 3.99874 60.1462 4.07163C60.151 4.10356 60.1484 4.13617 60.1384 4.1669C60.1285 4.19762 60.1116 4.22561 60.0889 4.24866L56.8504 7.57571L60.2399 11.1735C60.2641 11.1955 60.282 11.2234 60.2921 11.2544C60.3021 11.2855 60.3039 11.3186 60.2972 11.3505C60.2868 11.4182 60.2347 11.4547 60.1358 11.4547H58.6884C58.6193 11.4574 58.5503 11.4468 58.4853 11.4234C58.431 11.3976 58.3844 11.3581 58.3499 11.3089L55.7414 8.53894L53.1225 11.3037C53.0856 11.3527 53.0373 11.392 52.9819 11.4182C52.9154 11.4429 52.8444 11.4536 52.7736 11.4495H51.4043C51.3105 11.4495 51.2637 11.4182 51.2533 11.3453C51.2484 11.3134 51.2511 11.2808 51.261 11.2501C51.271 11.2193 51.2879 11.1913 51.3105 11.1683L54.7834 7.51323L51.649 4.24345C51.6287 4.21905 51.6136 4.19076 51.6046 4.16032C51.5957 4.12988 51.5931 4.09792 51.5969 4.06643C51.6021 3.99874 51.6542 3.96229 51.7531 3.96229H53.2006C53.2702 3.9583 53.3397 3.97078 53.4036 3.99874C53.4566 4.02426 53.5029 4.06168 53.539 4.10808L55.8403 6.58644L58.277 4.10808C58.3166 4.0573 58.3684 4.01732 58.4276 3.99184C58.4867 3.96636 58.5513 3.95619 58.6155 3.96229H59.9848V3.9675Z" fill="#0C2045"/>
<path d="M10.2988 0V3.84771L13.6571 1.92646L10.2988 0Z" fill="#0C2045"/>
<path opacity="0.9" d="M13.657 1.92651V5.77943L17.0205 3.84777L13.657 1.92651Z" fill="#0C2045"/>
<path opacity="0.8" d="M10.2988 3.84778V7.7007L13.6571 5.77944L10.2988 3.84778Z" fill="#0C2045"/>
<path opacity="0.8" d="M13.657 5.77942V9.62713L17.0205 7.70067L13.657 5.77942Z" fill="#0C2045"/>
<path opacity="0.8" d="M10.2988 7.70068V11.5536L13.6571 9.62714L10.2988 7.70068Z" fill="#0C2045"/>
<path d="M13.657 9.62708V13.48L17.0205 11.5535L13.657 9.62708Z" fill="#0C2045"/>
<path opacity="0.4" d="M1.61405 3.72278V7.57049L4.97233 5.64403L1.61405 3.72278Z" fill="#0C2045"/>
<path opacity="0.2" d="M5.85226 5.14929V9.00221L9.20534 7.08096L5.85226 5.14929Z" fill="#0C2045"/>
<path opacity="0.3" d="M3.36349 7.58606V11.439L6.72178 9.51252L3.36349 7.58606Z" fill="#0C2045"/>
<path opacity="0.9" d="M5.57632 10.4913V14.3443L8.9294 12.4178L5.57632 10.4913Z" fill="#0C2045"/>
<path opacity="0.7" d="M10.2727 12.1522V15.9999L13.6258 14.0735L10.2727 12.1522Z" fill="#0C2045"/>
<path opacity="0.9" d="M6.41458 3.2489V7.10182L9.76766 5.18057L6.41458 3.2489Z" fill="#0C2045"/>
<path opacity="0.8" d="M10.2987 0V3.84771L6.94046 1.92646L10.2987 0Z" fill="#0C2045"/>
<path opacity="0.6" d="M6.41458 1.63489V5.48781L3.05109 3.55614L6.41458 1.63489Z" fill="#0C2045"/>
<path opacity="0.6" d="M9.77287 3.54053V7.39345L6.41458 5.46699L9.77287 3.54053Z" fill="#0C2045"/>
<path opacity="0.95" d="M5.83666 5.14929V9.00221L2.47837 7.08096L5.83666 5.14929Z" fill="#0C2045"/>
<path opacity="0.6" d="M10.2987 7.70068V11.5536L6.94565 9.62714L10.2987 7.70068Z" fill="#0C2045"/>
<path opacity="0.55" d="M3.36349 8.59619V12.4491L0 10.5227L3.36349 8.59619Z" fill="#0C2045"/>
<path d="M17.0205 3.84778V7.7007L13.657 5.77944L17.0205 3.84778Z" fill="#0C2045"/>
<path opacity="0.95" d="M13.6571 5.77942V9.62713L10.2988 7.70067L13.6571 5.77942Z" fill="#0C2045"/>
<path opacity="0.9" d="M17.0205 7.70068V11.5536L13.657 9.62714L17.0205 7.70068Z" fill="#0C2045"/>
<path opacity="0.7" d="M13.6571 9.62708V13.48L10.2988 11.5535L13.6571 9.62708Z" fill="#0C2045"/>
<path opacity="0.4" d="M9.55419 11.2307V15.0836L6.1959 13.1624L9.55419 11.2307Z" fill="#0C2045"/>
<path d="M13.6571 1.92651V5.77943L10.2988 3.84777L13.6571 1.92651Z" fill="#0C2045"/>
</svg>
