<svg width="73" height="14" viewBox="0 0 73 14" fill="none" xmlns="http://www.w3.org/2000/svg">
<g clip-path="url(#clip0_1332_69324)">
<path d="M27.1723 0.824463L23.8555 7.92809L21.7079 0.824463H18.8612L16.6962 7.92809L13.3968 0.824463H10.4465L15.5967 13.1748H17.6215L20.2767 4.58857L22.9484 13.1748H24.9724L30.1234 0.824463H27.1723Z" fill="#0C2045"/>
<path d="M5.27287 0.824463L0 13.1748H2.89891L4.03322 10.5091L5.06481 8.08665L6.60132 4.4996L8.12129 8.08665L9.15027 10.5091L10.2863 13.1748H13.1852L7.91236 0.824463H5.27287Z" fill="#0C2045"/>
<path d="M32.2597 0.824463L26.9868 13.1748H29.8857L31.02 10.5091L32.0516 8.08665L33.589 4.4996L35.1072 8.08665L36.1371 10.5091L37.274 13.1748H40.172L34.8983 0.824463H32.2597Z" fill="#0C2045"/>
<path d="M50.8179 4.92411C50.8179 6.90321 50.0437 8.18082 48.4953 8.75693L51.5848 13.1764H48.2324L45.5293 9.23526H43.6403V13.1808H40.9155V0.823486H45.5433C47.4411 0.823486 48.7947 1.14649 49.6044 1.79248C50.414 2.43848 50.8185 3.48118 50.8179 4.92058V4.92411ZM47.5316 6.39082C47.8688 6.08426 48.0371 5.59829 48.0365 4.93291C48.0359 4.26754 47.8618 3.81122 47.5142 3.56398C47.166 3.31498 46.5545 3.19077 45.6799 3.19136H43.6403V6.85065H45.6303C46.5624 6.85065 47.1973 6.69737 47.5351 6.39082" fill="#0C2045"/>
<path d="M53.1031 0.824463V13.1748H62.0967V10.7373H55.8288V8.17474H61.294V5.82625H55.8288V3.28043H61.906V0.824463H53.1031Z" fill="#0C2045"/>
<path d="M66.9045 1.63838H67.0045V1.53838V0.958618V0.858618H66.9045H63.7077H63.6077V0.958618V1.53838V1.63838H63.7077H64.9098V5.35297V5.45297H65.0098H65.6023H65.7023V5.35297V1.63838H66.9045ZM72.1231 5.45297H72.2231V5.35297V0.958618V0.858618H72.1231H71.153H71.08L71.0578 0.92822L70.0136 4.20047L68.9695 0.92822L68.9473 0.858618H68.8743H67.9042H67.8042V0.958618V5.35297V5.45297H67.9042H68.4901H68.5901V5.35297V2.16071L69.6189 5.38338L69.6411 5.45297H69.7142H70.3131H70.3861L70.4084 5.38353L71.4437 2.15748V5.35297V5.45297H71.5437H72.1231Z" fill="#0C2045" stroke="#0C2045" stroke-width="0.2"/>
</g>
<defs>
<clipPath id="clip0_1332_69324">
<rect width="72.4318" height="14" fill="white"/>
</clipPath>
</defs>
</svg>
