<svg width="49" height="11" viewBox="0 0 49 11" fill="none" xmlns="http://www.w3.org/2000/svg">
<path d="M5.16206 6.56049C5.16206 4.98641 5.17847 3.02367 5.20585 1.9604H5.19217C4.98137 3.57057 4.47493 7.3267 4.08072 10.0112H2.75028C2.45462 7.60154 1.94269 3.64552 1.73464 1.9604H1.70727C1.73464 3.04032 1.77845 5.1391 1.77845 6.73261V10.0224H0.5V0.75H2.59971C2.95559 3.10695 3.32242 5.74708 3.44561 7.04632H3.46477C3.61534 5.73319 4.11083 2.9737 4.47493 0.75H6.50619V10.0224H5.16206V6.56049Z" fill="white" fill-opacity="0.4"/>
<path d="M9.21047 7.54047L8.89018 10.0224H7.45569L8.92849 0.75H10.9187L12.449 10.0224H10.9762L10.6285 7.54047H9.21047ZM10.4506 6.22736C10.2398 4.6505 10.0399 3.15692 9.93591 2.10753H9.88391C9.84559 2.87375 9.56908 4.85871 9.3884 6.22736H10.4506Z" fill="white" fill-opacity="0.4"/>
<path d="M13.3978 0.75H15.3524C17.2934 0.75 17.7642 1.76885 17.7642 3.49006V7.04632C17.7642 8.46215 17.5261 10.0224 15.3497 10.0224H13.3978V0.75ZM14.8077 8.80085H15.2594C16.1874 8.80085 16.3297 8.19286 16.3297 7.23509V3.37624C16.3297 2.52396 16.1792 1.98816 15.2512 1.98816H14.8077V8.80085Z" fill="white" fill-opacity="0.4"/>
<path d="M22.4699 5.78594H20.4523V8.70646H22.771L22.5903 10.0224H19.0315V0.75H22.5629V2.077H20.4523V4.47004H22.4644L22.4699 5.78594Z" fill="white" fill-opacity="0.4"/>
<path d="M24.0343 9.88632V9.79193C24.0343 8.65649 24.6503 7.57101 25.863 5.71099C26.5748 4.6144 26.7144 4.10637 26.7144 3.09307C26.7144 1.83825 26.4844 1.24416 25.7234 1.24416C24.9623 1.24416 24.6913 1.86324 24.6913 2.72107V3.08475H24.1821V2.69331C24.1821 1.76052 24.4559 0.75 25.7508 0.75C27.0456 0.75 27.2673 1.82993 27.2673 3.06809C27.2673 4.45617 26.9635 4.94755 26.2901 5.97472C25.2717 7.52659 24.6858 8.56488 24.6174 9.39495H27.4864L27.4015 9.88354L24.0343 9.88632Z" fill="white" fill-opacity="0.4"/>
<path d="M28.7565 0.75H31.5515V1.24138H29.2821V4.85038H31.401V5.34176H29.2821V10.0224H28.7565V0.75Z" fill="white" fill-opacity="0.4"/>
<path d="M32.8258 0.75H33.3515V9.53375H35.651L35.5552 10.0224H32.8176L32.8258 0.75Z" fill="white" fill-opacity="0.4"/>
<path d="M40.3734 2.95705V7.97911C40.3734 9.4588 39.7958 10.25 38.6241 10.25C37.2773 10.25 36.9159 9.28113 36.9159 7.98189V2.97092C36.9159 1.5995 37.4442 0.75 38.6652 0.75C39.982 0.755552 40.3734 1.81882 40.3734 2.95705ZM37.4552 3.00701V7.97078C37.4552 9.29223 37.9315 9.7614 38.6515 9.7614C39.3715 9.7614 39.8341 9.29223 39.8341 7.90138V3.0209C39.8341 1.78274 39.3879 1.24416 38.6378 1.24416C37.8248 1.24416 37.4552 1.76885 37.4552 3.00701Z" fill="white" fill-opacity="0.4"/>
<path d="M42.9357 10.0224L41.6381 0.75H42.2047C42.5579 3.2652 43.193 8.00409 43.2751 9.1673C43.3216 8.16233 44.1867 3.11528 44.5399 0.75H45.1449C45.5007 3.07642 46.3521 7.85973 46.3959 9.13954H46.437C46.5328 7.782 47.2583 3.18469 47.6005 0.75H48.148L46.7272 10.0224H46.0674C45.7252 7.76256 44.9532 2.87653 44.83 1.72165H44.8164C44.6494 3.10973 43.9458 7.7237 43.579 10.0224H42.9357Z" fill="white" fill-opacity="0.4"/>
</svg>
