<svg width="20" height="21" viewBox="0 0 20 21" fill="none" xmlns="http://www.w3.org/2000/svg">
<path d="M4.34392 8.72479C4.08003 8.72022 3.99953 8.80246 4.00847 9.07659C4.02636 9.51976 4.04873 9.96294 4.07556 10.4061L14.5012 9.71165C14.3702 9.71767 14.2397 9.72269 14.1095 9.7277C13.8441 9.73792 13.58 9.74809 13.316 9.76648C12.663 9.81674 12.0189 9.92639 11.4106 10.1914M4.34392 8.72479C5.24738 8.72479 6.15085 8.76134 7.01854 9.04917M4.34392 8.72479L4.34738 8.52482C4.34678 8.52481 4.34619 8.5248 4.34559 8.52479M4.34392 8.72479V8.52479C4.34448 8.52479 4.34503 8.52479 4.34559 8.52479M7.01854 9.04917C7.3674 9.16339 7.70732 9.33244 8.02487 9.52433C8.58395 9.86699 8.83889 10.4153 8.91939 11.0549C9.00437 11.7722 8.89256 12.4438 8.48108 13.0469C8.45871 13.0789 8.44977 13.1474 8.46766 13.184C8.80374 13.8979 9.01264 14.6518 9.16676 15.4542C9.17583 15.4255 9.1846 15.3973 9.19318 15.3691L9.1938 15.3671L9.19381 15.3671C9.22498 15.2683 9.25811 15.1706 9.29327 15.074M7.01854 9.04917L7.08151 8.85935C7.08138 8.8593 7.08125 8.85926 7.08112 8.85922M7.01854 9.04917L7.08077 8.8591C7.08089 8.85914 7.081 8.85918 7.08112 8.85922M9.29327 15.074C9.31816 15.1887 9.34166 15.3043 9.36399 15.4208C9.36401 15.4208 9.36402 15.4209 9.36404 15.421C9.36692 15.436 9.36978 15.4511 9.37262 15.4661C9.37664 15.4531 9.38061 15.4402 9.38454 15.4272C9.55898 14.8744 9.79602 14.3581 10.1091 13.8738M9.29327 15.074C9.46046 14.6145 9.67365 14.1791 9.94079 13.7658M9.29327 15.074C9.14686 14.3988 8.95231 13.7524 8.66446 13.1327M10.1091 13.8738C10.1762 13.7688 10.1762 13.6865 10.1315 13.5769C9.8318 12.791 9.81839 12.0006 10.1896 11.2331C10.4446 10.7077 10.9008 10.4107 11.4106 10.1914M10.1091 13.8738L9.94053 13.7662C9.94062 13.7661 9.94071 13.7659 9.94079 13.7658M10.1091 13.8738L9.94115 13.7653C9.94103 13.7654 9.94091 13.7656 9.94079 13.7658M11.4106 10.1914L11.3316 10.0077C11.3315 10.0077 11.3313 10.0078 11.3312 10.0078M11.4106 10.1914L11.3308 10.008C11.3309 10.008 11.3311 10.0079 11.3312 10.0078M11.0185 13.6916C10.9959 13.6728 10.9744 13.6585 10.9563 13.6465C10.9537 13.6448 10.9511 13.643 10.9484 13.6413C10.9366 13.6335 10.9236 13.6249 10.9078 13.6141C10.8618 13.6624 10.8149 13.711 10.7666 13.7596C10.7978 13.7815 10.8205 13.7965 10.8384 13.8083C10.8615 13.8236 10.8767 13.8335 10.8918 13.8464M11.0185 13.6916C11.0178 13.6911 11.017 13.6905 11.0163 13.6899L10.8918 13.8464M11.0185 13.6916C11.0195 13.6925 11.0205 13.6933 11.0215 13.6941L10.8918 13.8464M11.0185 13.6916C11.0361 13.7056 11.0539 13.7191 11.0718 13.7321C11.027 13.7793 10.9805 13.8276 10.9316 13.8772C10.9183 13.8672 10.905 13.8569 10.8918 13.8464M11.3312 10.0078C11.968 9.73049 12.6366 9.61817 13.3006 9.56707L13.3021 9.56696C13.5691 9.54836 13.8387 9.53798 14.1059 9.52768C14.2353 9.5227 14.3642 9.51773 14.492 9.51186L14.4945 9.51175C14.6376 9.50697 14.804 9.52028 14.9234 9.63609C15.0432 9.75239 15.0613 9.91908 15.059 10.0662C15.0456 11.0494 15.0013 12.0545 14.6776 13.0276C14.4848 13.6091 14.2024 14.1817 13.6367 14.5568L13.6364 14.557C13.0676 14.9327 12.4351 15.0129 11.7988 14.936C11.362 14.8863 10.937 14.7574 10.5637 14.485C10.2814 14.9736 10.0817 15.485 9.93551 16.0274C9.72594 16.8124 9.63374 17.6172 9.63374 18.4381L9.63374 18.4417C9.63375 18.4715 9.63377 18.5182 9.62845 18.5632C9.62391 18.6017 9.61153 18.6842 9.55433 18.751L9.55016 18.7558L9.55008 18.7558C9.51175 18.7977 9.46085 18.846 9.40267 18.8853C9.34894 18.9217 9.26485 18.967 9.16539 18.967C9.05881 18.967 8.9719 18.9088 8.92308 18.868C8.86953 18.8232 8.81888 18.7635 8.78657 18.6993C8.74708 18.6253 8.73709 18.5475 8.73373 18.4911C8.7313 18.4506 8.73198 18.4033 8.73249 18.3684C8.73265 18.3568 8.7328 18.3465 8.73281 18.3383C8.7239 17.1145 8.62176 15.9144 8.29748 14.7503C8.21411 14.4571 8.11442 14.1736 8.01035 13.8776C7.98949 13.8183 7.96845 13.7584 7.94734 13.6979C7.31724 13.9762 6.6931 14.0237 6.05502 13.9012M11.3312 10.0078C10.8034 10.2349 10.2952 10.5572 10.0097 11.1458L10.0096 11.146C9.61083 11.9704 9.62839 12.8189 9.9446 13.6481L9.94455 13.6482L9.94628 13.6524C9.96239 13.6919 9.96296 13.7086 9.96256 13.7153C9.96228 13.7201 9.9609 13.7342 9.94079 13.7658M8.66446 13.1327C9.09377 12.4885 9.20614 11.7753 9.118 11.0314L9.11801 11.0314L9.11783 11.0299C9.03242 10.3514 8.75616 9.73797 8.12938 9.35381L8.12939 9.35381L8.12831 9.35316C7.8019 9.15592 7.44813 8.97942 7.08112 8.85922M8.66446 13.1327C8.65921 13.1214 8.65393 13.1101 8.64861 13.0988L8.64863 13.0988L8.6473 13.096C8.64775 13.097 8.64819 13.0979 8.6486 13.0988C8.65603 13.1149 8.65752 13.1266 8.65786 13.1297C8.65813 13.1321 8.65815 13.1337 8.65814 13.1343L8.6581 13.1353L8.65805 13.1356L8.65739 13.138C8.65697 13.1393 8.65427 13.1477 8.64628 13.1596C8.64586 13.1602 8.64543 13.1609 8.64498 13.1615L8.64629 13.1596C8.65241 13.1506 8.65846 13.1417 8.66446 13.1327ZM7.08112 8.85922C6.18134 8.56081 5.25074 8.52483 4.34559 8.52479M4.34559 8.52479C4.20735 8.52255 4.0438 8.53851 3.92949 8.65779C3.81644 8.77576 3.80394 8.94086 3.80858 9.08311L3.80857 9.08311L3.80863 9.08465C3.82658 9.52917 3.84901 9.97369 3.87593 10.4182L3.87596 10.4187C3.91739 11.0771 4.05111 11.7245 4.30177 12.341L4.30177 12.341L4.30228 12.3422C4.62755 13.1271 5.15908 13.7293 6.05502 13.9012M6.05502 13.9012C6.05501 13.9012 6.05501 13.9012 6.055 13.9012L6.09271 13.7048L6.05502 13.9012ZM14.375 10.2207C14.3753 10.214 14.3756 10.2072 14.376 10.2005L14.367 10.2051C14.3019 10.2083 14.238 10.2114 14.1751 10.2146C14.1718 10.2828 14.1688 10.3497 14.166 10.4154C14.2316 10.412 14.2984 10.4087 14.3666 10.4053C14.3682 10.3692 14.3698 10.3327 14.3715 10.2961C14.3726 10.2711 14.3738 10.2459 14.375 10.2207ZM11.8311 10.5615L11.8955 10.7508C11.8958 10.7507 11.896 10.7506 11.8962 10.7505C11.8964 10.7505 11.8967 10.7504 11.8969 10.7503L11.8311 10.5615ZM10.6347 12.1476C10.6347 12.1475 10.6347 12.1474 10.6347 12.1473L10.4356 12.1286L10.6347 12.1479C10.6347 12.1478 10.6347 12.1477 10.6347 12.1476ZM10.4846 13.0365C10.5027 13.1138 10.5249 13.1918 10.5519 13.2708C10.5561 13.2656 10.5602 13.2607 10.5642 13.256C10.6057 13.2058 10.6302 13.1762 10.6548 13.1428C10.6712 13.1244 10.6877 13.1061 10.7043 13.088C10.682 13.0086 10.6646 12.93 10.6515 12.8518C10.6021 12.9033 10.5534 12.956 10.5055 13.0097L10.4992 13.0168L10.4936 13.0245C10.4906 13.0285 10.4876 13.0325 10.4846 13.0365ZM12.3375 11.6248C12.3373 11.6249 12.337 11.625 12.3367 11.6252L12.4259 11.8042L12.3383 11.6244C12.3381 11.6245 12.3378 11.6246 12.3375 11.6248ZM14.1231 11.2247C14.123 11.225 14.123 11.2253 14.123 11.2256C14.123 11.2259 14.1229 11.2261 14.1229 11.2264L14.3223 11.2422L14.1231 11.2247ZM13.7567 12.9628C13.7567 12.9628 13.7567 12.9628 13.7567 12.9628L13.9421 13.0378L13.7567 12.9628ZM6.41249 11.682C6.85441 12.0101 7.21754 12.4144 7.51956 12.898C7.23299 13.0195 6.93565 13.0641 6.62069 13.0571C6.27422 13.0486 5.98201 12.9706 5.74626 12.8214C5.51209 12.6731 5.32045 12.4464 5.18668 12.1172L5.18665 12.1172C5.04493 11.7688 4.92253 11.4254 4.86806 11.0791C4.80556 10.6703 4.7768 10.261 4.7474 9.84276C4.73773 9.70516 4.728 9.56658 4.71697 9.42673C4.86692 9.43328 5.01393 9.44047 5.16283 9.44978C5.83238 9.49509 6.47519 9.57585 7.09127 9.80748L7.09158 9.8076C7.60158 9.99841 7.91067 10.2637 8.07899 10.5964C8.24962 10.9336 8.2912 11.3704 8.20297 11.9331L8.20266 11.9352C8.19042 12.0192 8.16711 12.1048 8.13604 12.2013C8.02282 12.0477 7.91431 11.9028 7.80111 11.7618C7.42546 11.2871 6.94058 10.9442 6.48263 10.6204L6.47207 10.6129L6.47211 10.6128L6.46767 10.6099C6.37567 10.5484 6.26582 10.5159 6.15083 10.5365C6.03732 10.5568 5.94679 10.6239 5.88156 10.7077C5.80891 10.7999 5.76773 10.912 5.78032 11.0313C5.79287 11.1502 5.85598 11.2493 5.9407 11.3214L6.07034 11.1691L5.93935 11.3202C6.07111 11.4344 6.21016 11.5352 6.34201 11.6308C6.36577 11.648 6.38929 11.6651 6.41249 11.682Z" fill="#0352C9" stroke="#0352C9" stroke-width="0.4"/>
<path d="M8.71106 4.73837L8.71838 4.69799C8.7261 4.65545 8.73402 4.61249 8.74201 4.56917C8.78089 4.35842 8.82137 4.13899 8.84685 3.91609C8.84913 3.89456 8.84637 3.86225 8.8365 3.82821C8.82638 3.79333 8.81243 3.76903 8.80231 3.75783L8.80157 3.75702L8.80158 3.75702C8.71772 3.66257 8.62787 3.57403 8.53451 3.48322C8.52521 3.47418 8.51587 3.46511 8.50649 3.456C8.42269 3.3746 8.33627 3.29066 8.25349 3.20187L8.25242 3.20072L8.25242 3.20071C8.21314 3.1575 8.17655 3.09943 8.15236 3.04129C8.14011 3.01185 8.12962 2.97901 8.12448 2.94525C8.11957 2.91295 8.1183 2.87161 8.13256 2.82993C8.15892 2.75078 8.22789 2.70033 8.2756 2.67239C8.32936 2.6409 8.39067 2.61814 8.44248 2.60638L8.44552 2.60569L8.44553 2.60573C8.5856 2.57758 8.72617 2.5566 8.86302 2.53663C8.87317 2.53515 8.88329 2.53368 8.89339 2.5322C9.01999 2.51376 9.14308 2.49583 9.26409 2.47321C9.26465 2.47293 9.26542 2.47252 9.2664 2.47194C9.27094 2.46926 9.27756 2.46446 9.28547 2.45706C9.3017 2.4419 9.31648 2.42231 9.32549 2.40533C9.3769 2.30611 9.425 2.20521 9.47407 2.10228C9.48142 2.08687 9.48879 2.07141 9.4962 2.0559C9.55271 1.93759 9.61104 1.81717 9.67549 1.6996L9.68097 1.68961L9.6814 1.6899C9.71288 1.64312 9.75808 1.59293 9.80663 1.55325C9.83111 1.53325 9.85903 1.51378 9.88898 1.49882C9.91772 1.48445 9.95628 1.47021 9.99978 1.47021C10.082 1.47021 10.1526 1.51822 10.1964 1.55626C10.2443 1.59789 10.2877 1.65179 10.3157 1.70529M8.71106 4.73837L10.2055 1.76426M8.71106 4.73837L8.72049 4.75763M8.71106 4.73837L8.84585 4.72942M10.3157 1.70529C10.316 1.70578 10.3163 1.70626 10.3165 1.70674L10.2055 1.76426M10.3157 1.70529C10.3155 1.70492 10.3153 1.70455 10.3151 1.70417L10.2055 1.76426M10.3157 1.70529C10.3799 1.82242 10.4381 1.94248 10.4948 2.06004L10.5011 2.07322C10.5562 2.18747 10.6102 2.29925 10.669 2.40868L10.6694 2.40957L10.6694 2.40957C10.6757 2.42145 10.6891 2.43818 10.7074 2.45259C10.716 2.45942 10.7242 2.46451 10.7311 2.46788C10.7345 2.46953 10.7373 2.4706 10.7393 2.47127C10.7414 2.47194 10.7424 2.4721 10.7424 2.4721L10.7467 2.47272L10.7466 2.47279C10.8829 2.49748 11.0206 2.51775 11.1612 2.53835L11.1694 2.53956C11.3067 2.55967 11.4468 2.58019 11.5871 2.60522L11.5902 2.60577L11.5902 2.60581C11.6422 2.61644 11.6964 2.64097 11.7408 2.67095C11.7811 2.69817 11.8364 2.74535 11.8585 2.81286L11.8608 2.82001L11.8606 2.82007C11.8759 2.87883 11.8725 2.94337 11.8598 2.99878C11.8472 3.05409 11.822 3.11568 11.779 3.16357L11.7784 3.16424C11.5968 3.36365 11.4016 3.55838 11.2018 3.73928L11.2006 3.74036L11.2006 3.74035C11.1658 3.77106 11.1516 3.79648 11.1449 3.81896C11.1377 3.84304 11.1357 3.87485 11.1429 3.9234M10.2055 1.76426C10.2706 1.883 10.3297 2.00544 10.389 2.12837C10.4437 2.24195 10.4987 2.35596 10.5589 2.46786C10.5902 2.52725 10.6617 2.58665 10.7243 2.59579C10.8654 2.62136 11.0077 2.6422 11.1505 2.66312C11.2884 2.68332 11.4268 2.7036 11.5652 2.72828C11.6323 2.74199 11.7217 2.79681 11.7396 2.85164C11.7575 2.92017 11.7352 3.02525 11.686 3.08008C11.5071 3.27654 11.3147 3.46843 11.1179 3.64661M11.1429 3.9234C11.1428 3.92283 11.1427 3.92225 11.1426 3.92168L11.0195 3.94359M11.1429 3.9234C11.143 3.92392 11.1431 3.92444 11.1431 3.92497L11.0195 3.94359M11.1429 3.9234C11.1548 3.99017 11.1675 4.05794 11.1804 4.12646C11.2148 4.30949 11.2502 4.49786 11.2733 4.68683L11.2734 4.68771C11.2798 4.74278 11.2749 4.8081 11.2605 4.86629C11.2481 4.91646 11.2205 4.99482 11.1555 5.04086M11.0195 3.94359C11.0016 3.8248 11.0195 3.73342 11.1179 3.64661M11.0195 3.94359C11.032 4.01347 11.0451 4.08335 11.0583 4.15333C11.0924 4.33499 11.1266 4.51731 11.1492 4.70201C11.1582 4.77968 11.1358 4.90304 11.0822 4.93959M11.1179 3.64661L11.1179 3.64662L11.1179 3.64661ZM8.84138 4.72029C8.84895 4.67851 8.85678 4.63609 8.86471 4.5931C8.90364 4.38216 8.94508 4.1576 8.97108 3.92988C8.98003 3.84764 8.94872 3.73342 8.89505 3.67403C8.79913 3.566 8.69646 3.46626 8.59371 3.36645C8.5096 3.28475 8.42545 3.20301 8.34492 3.11663C8.28678 3.05267 8.22863 2.93388 8.25099 2.86992C8.27336 2.80138 8.38965 2.74656 8.47015 2.72828C8.6168 2.69881 8.76474 2.67726 8.91189 2.65583C9.0385 2.63739 9.16453 2.61903 9.28864 2.59579C9.34231 2.58665 9.40493 2.52268 9.43624 2.46329C9.48876 2.36194 9.53791 2.25885 9.58698 2.15592C9.65072 2.02221 9.71434 1.88877 9.7851 1.75969L8.84138 4.72029ZM8.84138 4.72029L8.84585 4.72942M8.84138 4.72029L8.84585 4.72942M11.1555 5.04086C11.1564 5.04019 11.1573 5.03951 11.1582 5.03882L11.0822 4.93959M11.1555 5.04086C11.1545 5.04155 11.1535 5.04223 11.1525 5.04291L11.0822 4.93959M11.1555 5.04086C11.0947 5.0859 11.017 5.09331 10.9628 5.09196C10.9028 5.09047 10.8381 5.07736 10.7852 5.05371L10.7828 5.05268L10.7829 5.05265C10.5482 4.94202 10.3121 4.82152 10.0843 4.68657M11.0822 4.93959C11.0285 4.98071 10.9077 4.97157 10.8362 4.93959C10.6036 4.82994 10.371 4.71115 10.1474 4.57865M10.0843 4.68657C10.0845 4.68668 10.0847 4.68679 10.0849 4.68691L10.1474 4.57865M10.0843 4.68657C10.0841 4.68645 10.0839 4.68632 10.0837 4.6862L10.1474 4.57865M10.0843 4.68657C10.0426 4.66259 10.0196 4.65757 10.0049 4.65738C9.99144 4.65721 9.97014 4.66085 9.93161 4.68481L9.92842 4.68679L9.92839 4.68674C9.69708 4.8211 9.45743 4.94577 9.21941 5.06505L9.21921 5.06515C9.1038 5.12272 8.96852 5.1435 8.85832 5.06771C8.7591 4.99947 8.72189 4.88103 8.72049 4.75763M10.1474 4.57865C10.0445 4.51926 9.96848 4.51469 9.86561 4.57865L9.16341 4.9533C8.97108 5.04924 8.83691 4.96243 8.84585 4.72942M8.72049 4.75763L8.7291 4.77524L8.73358 4.78437L8.84585 4.72942M8.72049 4.75763C8.72036 4.74666 8.72052 4.73565 8.72094 4.72463L8.82439 4.7286L8.84585 4.72942M9.99563 2.49713C9.94018 2.60295 9.89186 2.697 9.85208 2.79724L9.85205 2.79732C9.81686 2.88581 9.76672 2.96082 9.6938 3.01522C9.62107 3.06948 9.53594 3.09558 9.44378 3.10399C9.33523 3.1151 9.23045 3.13107 9.11198 3.14941C9.11901 3.157 9.12586 3.16435 9.13252 3.17141C9.18792 3.23023 9.23756 3.27838 9.29076 3.3172L9.29162 3.31783L9.29162 3.31783C9.41155 3.40693 9.48153 3.5139 9.50947 3.63655C9.53631 3.75435 9.52167 3.87537 9.49546 3.98978M9.99563 2.49713L9.49546 3.98978M9.99563 2.49713C10.0434 2.58806 10.0855 2.67111 10.1203 2.75971C10.1639 2.87364 10.23 2.9606 10.3187 3.02078C10.4061 3.08 10.5063 3.10716 10.6088 3.11763L10.6088 3.11764L10.6109 3.11782C10.7006 3.12546 10.7905 3.13602 10.893 3.14967C10.8912 3.15138 10.8894 3.1531 10.8876 3.15481C10.8083 3.23053 10.7369 3.29874 10.6626 3.36683C10.598 3.42525 10.5385 3.49329 10.5049 3.57971C10.4702 3.66924 10.4683 3.76536 10.4962 3.87048L10.4961 3.87048L10.4967 3.87258C10.5188 3.9505 10.5324 4.03352 10.5451 4.1281C10.548 4.1496 10.5508 4.1719 10.5538 4.19487C10.441 4.13605 10.3361 4.08128 10.2312 4.02206L10.2312 4.02202L10.2284 4.02052C10.1618 3.98516 10.0898 3.95966 10.0109 3.95797C9.93048 3.95624 9.85415 3.97939 9.77978 4.02322L9.77961 4.02332C9.67515 4.08509 9.57165 4.13837 9.45673 4.19735C9.46862 4.12359 9.48021 4.05657 9.49546 3.98978M9.99563 2.49713L9.49546 3.98978" fill="#0352C9" stroke="#0352C9" stroke-width="0.25"/>
<path d="M15.8039 4.86175C15.8755 4.87545 15.9694 4.93942 15.9873 4.99881C16.0052 5.05821 15.9694 5.16786 15.9202 5.22268C15.8317 5.3174 15.7392 5.40806 15.647 5.49848C15.5435 5.59998 15.4402 5.70118 15.3433 5.80749C15.2941 5.85775 15.2628 5.95369 15.2717 6.02223L14.3995 6.71212C14.2922 6.64815 14.2072 6.64815 14.0999 6.71212C13.8628 6.84918 13.6213 6.97254 13.3798 7.09133M15.8039 4.86175L15.8277 4.73903M15.8039 4.86175C15.684 4.83851 15.5631 4.82113 15.4421 4.80375C15.3015 4.78353 15.1607 4.7633 15.0212 4.73382M15.8039 4.86175L15.8275 4.73898C15.8275 4.739 15.8276 4.73901 15.8277 4.73903M15.8277 4.73903C15.8853 4.75012 15.9433 4.77873 15.9891 4.81194C16.0316 4.84276 16.0863 4.89388 16.107 4.96276C16.1266 5.0277 16.114 5.09872 16.0984 5.1493C16.0818 5.20318 16.0531 5.26183 16.0133 5.30617L16.0116 5.30805L16.0116 5.30803C15.9211 5.40482 15.8268 5.49727 15.735 5.58727C15.7292 5.59297 15.7234 5.59866 15.7176 5.60434C15.6196 5.70045 15.5247 5.79413 15.4356 5.89173L15.4326 5.89499L15.4326 5.89494C15.4248 5.90287 15.413 5.92108 15.4043 5.9473C15.3957 5.97352 15.3942 5.99523 15.3957 6.00605L15.3959 6.00804L15.3959 6.00804C15.4111 6.14153 15.433 6.27442 15.4554 6.41084L15.4557 6.41229C15.4779 6.54725 15.5007 6.68572 15.5167 6.82586L15.3925 6.84005L15.5165 6.82486C15.5337 6.96531 15.5133 7.11556 15.3954 7.1962C15.2787 7.27607 15.1318 7.24247 15.0091 7.17981C14.7843 7.06499 14.5591 6.94539 14.3382 6.82105L14.3355 6.81953L14.3356 6.8195C14.2942 6.79486 14.2683 6.78915 14.2497 6.78915C14.2311 6.78915 14.2052 6.79486 14.1639 6.8195L14.1625 6.82034L14.1625 6.82033C13.9218 6.95945 13.6775 7.08423 13.435 7.2035M15.8277 4.73903C15.7047 4.71519 15.5808 4.69739 15.4604 4.68009C15.4504 4.67865 15.4404 4.67721 15.4304 4.67577C15.2994 4.65691 15.1723 4.63799 15.0471 4.61152L15.0212 4.73382M13.435 7.2035C13.4351 7.20343 13.4352 7.20337 13.4354 7.2033L13.3798 7.09133M13.435 7.2035L13.3798 7.09133M13.435 7.2035C13.3248 7.25803 13.2057 7.25858 13.1096 7.20404C13.0133 7.14944 12.9551 7.04747 12.9551 6.93142V6.88043L12.9675 6.86777C12.9791 6.79523 12.9902 6.72234 13.0012 6.64947C13.0331 6.43872 13.065 6.22814 13.1102 6.02681L13.1108 6.02449L13.1108 6.02449C13.1217 5.98005 13.1166 5.96023 13.1117 5.94857C13.1049 5.93214 13.09 5.91177 13.0519 5.87501C12.8692 5.70202 12.678 5.52078 12.5045 5.32952M13.3798 7.09133L12.5076 4.99424L12.3862 4.96453C12.3861 4.96489 12.386 4.96525 12.386 4.96561C12.3687 5.03752 12.3859 5.1122 12.407 5.16765C12.4293 5.22638 12.4639 5.28477 12.5045 5.32952M12.5045 5.32952L12.5971 5.24553L12.5046 5.32961C12.5046 5.32958 12.5045 5.32955 12.5045 5.32952ZM15.0212 4.73382L15.0475 4.61161M15.0212 4.73382L15.0475 4.61161M13.9383 3.82065L13.9384 3.82071C13.9654 3.77482 14.0064 3.72448 14.0516 3.68489C14.0745 3.66491 14.1015 3.6449 14.1314 3.6298C14.1599 3.61539 14.2003 3.60078 14.2468 3.60395C14.3216 3.60868 14.3883 3.64805 14.4349 3.68514C14.4839 3.72416 14.5289 3.77513 14.558 3.82792M13.9383 3.82065L14.558 3.82792M13.9383 3.82065L13.9358 3.82546M13.9383 3.82065L13.9358 3.82546M14.558 3.82792C14.558 3.8278 14.5579 3.82768 14.5578 3.82756L14.4487 3.88859L14.5582 3.82829C14.5582 3.82817 14.5581 3.82805 14.558 3.82792ZM13.9358 3.82546C13.8179 4.04771 13.7094 4.2741 13.6057 4.50431M13.9358 3.82546L13.6057 4.50431M13.6057 4.50431L13.7197 4.55564L13.6057 4.50431ZM15.0475 4.61161C15.025 4.60677 14.9947 4.59349 14.9647 4.57211M15.0475 4.61161L14.9647 4.57211M14.9647 4.57211C14.9347 4.55069 14.9128 4.52669 14.9015 4.50696M14.9647 4.57211L14.9015 4.50696M14.9015 4.50696L14.7931 4.56934L14.9015 4.50696ZM13.4482 4.62311C13.448 4.62313 13.4478 4.62315 13.4476 4.62317L13.4603 4.74753L13.4489 4.62304C13.4487 4.62307 13.4485 4.62309 13.4482 4.62311ZM14.2491 4.6412C14.3017 4.74831 14.3506 4.84866 14.398 4.95088L14.3979 4.95089L14.3991 4.95325C14.4352 5.02698 14.4817 5.09615 14.5502 5.14774C14.6203 5.20058 14.7032 5.22748 14.7991 5.23324L14.7991 5.23324L14.8003 5.23331C14.9087 5.23871 15.0155 5.25574 15.1349 5.27704C15.0504 5.36441 14.9702 5.44558 14.8843 5.5224L14.884 5.52264C14.8143 5.58526 14.7651 5.65659 14.74 5.74011C14.7153 5.82224 14.717 5.90608 14.7327 5.98954C14.7386 6.02373 14.7444 6.0577 14.7503 6.09181C14.7636 6.16891 14.777 6.24666 14.7908 6.32896C14.6907 6.27866 14.6016 6.23321 14.5131 6.18007L14.5131 6.18006L14.5114 6.17904C14.4324 6.13331 14.3478 6.10219 14.2558 6.10056C14.1629 6.09891 14.0747 6.12759 13.9894 6.18093C13.8984 6.23664 13.8048 6.28487 13.7013 6.33708C13.7199 6.22928 13.7382 6.12852 13.7611 6.02718C13.7823 5.93481 13.7857 5.84286 13.7599 5.75343C13.734 5.66372 13.6817 5.5867 13.6081 5.51958C13.5308 5.44579 13.4597 5.36735 13.3862 5.28475C13.5007 5.26882 13.6194 5.25031 13.7304 5.21988L13.7304 5.21988L13.7309 5.21974C13.8525 5.18586 13.9874 5.10214 14.0651 4.98614L14.0651 4.98614L14.0659 4.98489C14.135 4.87901 14.192 4.76222 14.2491 4.6412Z" fill="#0352C9" stroke="#0352C9" stroke-width="0.25"/>
<path d="M5.20842 4.5788L5.10063 4.5155C5.09155 4.53097 5.07164 4.5532 5.04277 4.57414C5.01432 4.59478 4.9863 4.60753 4.96662 4.61212C4.84456 4.63833 4.72056 4.65601 4.59253 4.67371C4.58505 4.67475 4.57755 4.67578 4.57004 4.67682C4.45012 4.69337 4.3264 4.71045 4.20433 4.73494L4.20432 4.73491L4.20125 4.7356C4.14444 4.7485 4.08351 4.77576 4.0321 4.81004C3.98444 4.84182 3.92661 4.89181 3.89893 4.95996C3.88021 5.00349 3.8809 5.04707 3.88567 5.07955C3.89071 5.11388 3.90188 5.14663 3.91427 5.17492C3.93886 5.23107 3.97541 5.28577 4.01094 5.32509L4.01093 5.3251L4.01226 5.32652C4.09859 5.41912 4.18878 5.50736 4.27636 5.59304C4.28192 5.59848 4.28746 5.6039 4.293 5.60932C4.38642 5.70075 4.47664 5.78963 4.56098 5.88239C4.571 5.89366 4.58481 5.91689 4.59496 5.94758C4.60528 5.97879 4.6073 6.00401 4.60577 6.0165L4.60566 6.0175C4.57995 6.2426 4.54203 6.46745 4.50659 6.6776C4.49952 6.71956 4.49254 6.76093 4.48578 6.8016L4.47078 6.89181L4.49303 6.90318C4.49887 7.01852 4.53231 7.12719 4.61917 7.19374C4.73394 7.28167 4.87796 7.25097 4.99646 7.18951C5.23025 7.07467 5.46107 6.95449 5.68809 6.81998L5.68836 6.81982C5.72819 6.79609 5.75314 6.79129 5.77123 6.79172C5.79034 6.79217 5.81718 6.79885 5.86005 6.82439L5.86004 6.82441L5.86197 6.82551C6.0872 6.95436 6.31841 7.07945 6.55504 7.19101L6.55503 7.19103L6.55734 7.19207C6.61356 7.21719 6.67975 7.22726 6.73952 7.22575C6.79655 7.22431 6.86751 7.2118 6.92471 7.17213C6.96035 7.14822 6.98275 7.1153 6.99662 7.08907C7.0115 7.06096 7.02175 7.03069 7.02877 7.00238C7.04254 6.94689 7.0476 6.88348 7.04103 6.82975L7.04103 6.82975L7.0409 6.82876C7.02274 6.68963 7.0001 6.55199 6.97784 6.41672L6.97768 6.41574C6.95526 6.27948 6.93325 6.1456 6.91567 6.01094L6.91567 6.01094L6.91552 6.00981C6.91416 6.00014 6.9151 5.97968 6.92238 5.95464C6.9294 5.93047 6.93853 5.91505 6.94299 5.90952C7.02902 5.81756 7.11906 5.72929 7.21112 5.63904C7.21659 5.63368 7.22206 5.62831 7.22755 5.62293C7.32521 5.52716 7.42484 5.42895 7.51918 5.32552L7.51957 5.32509C7.55841 5.28211 7.5916 5.22474 7.61295 5.16875C7.63243 5.11766 7.6522 5.04158 7.63219 4.97003C7.61078 4.89349 7.54751 4.84014 7.50228 4.81001C7.45261 4.77692 7.39162 4.74997 7.33431 4.73934C7.08471 4.6884 6.83134 4.65145 6.57896 4.62378C6.52765 4.61661 6.49621 4.60306 6.47369 4.58617C6.45098 4.56914 6.42801 4.54171 6.40512 4.4917C6.3097 4.26903 6.20501 4.05516 6.08651 3.84565L6.08651 3.84565L6.08603 3.84481C6.05678 3.79402 6.01238 3.73908 5.96354 3.6956C5.93886 3.67364 5.91032 3.65214 5.87919 3.63558C5.84912 3.61957 5.80885 3.604 5.76302 3.604V3.60378L5.75552 3.60423C5.67246 3.60922 5.60266 3.6611 5.55868 3.70213C5.51068 3.7469 5.46817 3.80258 5.43947 3.85487C5.37468 3.96615 5.31944 4.08136 5.26668 4.19139L5.26566 4.19352C5.21163 4.30622 5.16008 4.41356 5.10044 4.51583L5.20842 4.5788ZM5.20842 4.5788C5.27103 4.47144 5.32471 4.3595 5.37838 4.24756C5.43205 4.13563 5.48572 4.02369 5.54834 3.91633L4.22892 4.8575C4.34712 4.83378 4.46731 4.81719 4.58809 4.80051C4.72324 4.78185 4.85911 4.7631 4.99373 4.73414C5.07424 4.71587 5.16816 4.64734 5.20842 4.5788ZM5.75569 4.64294C5.80544 4.74209 5.85136 4.83456 5.89501 4.93162L5.89499 4.93163L5.89605 4.93386C5.93381 5.01359 5.98227 5.0891 6.05491 5.14536C6.12959 5.20321 6.21911 5.23252 6.32433 5.23818L6.32433 5.23822L6.32785 5.23831C6.43469 5.24104 6.53626 5.25913 6.66255 5.28322C6.57137 5.37072 6.48822 5.44957 6.39857 5.5245C6.39854 5.52453 6.39851 5.52456 6.39848 5.52458L5.75569 4.64294ZM5.75569 4.64294C5.6939 4.77009 5.63369 4.88993 5.56642 5.00346C5.53846 5.05095 5.49874 5.09692 5.45432 5.13424C5.41054 5.17103 5.35428 5.20605 5.2913 5.22119L5.28976 5.22156L5.28976 5.22155C5.15772 5.25152 5.02058 5.27061 4.87853 5.2896C4.95149 5.36789 5.01848 5.43766 5.09557 5.50117L5.09875 5.50379L5.09871 5.50384C5.17626 5.57213 5.23345 5.65016 5.26196 5.74321C5.29037 5.8359 5.28665 5.93155 5.26284 6.02903C5.23996 6.12519 5.22486 6.22175 5.20957 6.33083C5.32609 6.26737 5.44125 6.20613 5.55729 6.16168L5.75569 4.64294ZM4.60909 6.82209C4.61576 6.78199 4.62267 6.74101 4.6297 6.6993C4.66515 6.48915 4.70373 6.26042 4.72985 6.03169C4.73879 5.95859 4.70301 5.8535 4.65381 5.79868C4.56157 5.6972 4.46308 5.60084 4.36428 5.50418C4.27625 5.41806 4.18798 5.3317 4.10368 5.24128C4.05001 5.18189 3.9874 5.06767 4.01423 5.00827L4.60909 6.82209ZM6.24442 6.01592C6.26472 6.11705 6.28348 6.2177 6.3034 6.32577C6.19136 6.26399 6.07843 6.20441 5.96411 6.16161C5.96437 6.16171 5.96463 6.16181 5.96489 6.16191L6.24442 6.01592Z" fill="#0352C9" stroke="#0352C9" stroke-width="0.25"/>
</svg>
