<svg width="100" height="100" viewBox="0 0 100 100" fill="none" xmlns="http://www.w3.org/2000/svg">
<rect width="100" height="100" fill="#163F85"/>
<path d="M52.8333 72.6667V75.5C52.8333 76.3028 52.5613 76.9762 52.0173 77.5202C51.4733 78.0642 50.8009 78.3352 50 78.3333C49.1972 78.3333 48.5238 78.0613 47.9798 77.5173C47.4358 76.9733 47.1648 76.3009 47.1667 75.5V64.1667C47.1667 63.3639 47.4387 62.6905 47.9827 62.1465C48.5267 61.6025 49.1991 61.3315 50 61.3333C50.8028 61.3333 51.4762 61.6053 52.0202 62.1493C52.5642 62.6933 52.8352 63.3658 52.8333 64.1667V67H72.6667C73.4695 67 74.1428 67.272 74.6868 67.816C75.2308 68.36 75.5019 69.0325 75.5 69.8333C75.5 70.6361 75.228 71.3095 74.684 71.8535C74.14 72.3975 73.4676 72.6686 72.6667 72.6667H52.8333ZM27.3333 72.6667C26.5306 72.6667 25.8572 72.3947 25.3132 71.8507C24.7692 71.3067 24.4981 70.6342 24.5 69.8333C24.5 69.0306 24.772 68.3572 25.316 67.8132C25.86 67.2692 26.5325 66.9981 27.3333 67H38.6667C39.4695 67 40.1428 67.272 40.6868 67.816C41.2308 68.36 41.5019 69.0325 41.5 69.8333C41.5 70.6361 41.228 71.3095 40.684 71.8535C40.14 72.3975 39.4676 72.6686 38.6667 72.6667H27.3333ZM43.2 46.9542H56.8708L59.2792 53.8958C59.4681 54.4153 59.7986 54.8403 60.2708 55.1708C60.7431 55.5014 61.2625 55.6667 61.8292 55.6667C62.7736 55.6667 63.5292 55.2653 64.0958 54.4625C64.6625 53.6597 64.757 52.8097 64.3792 51.9125L53.7542 23.5083C53.5181 22.9417 53.1639 22.4931 52.6917 22.1625C52.2195 21.8319 51.6764 21.6667 51.0625 21.6667H48.9375C48.3236 21.6667 47.7806 21.8319 47.3083 22.1625C46.8361 22.4931 46.482 22.9417 46.2458 23.5083L35.55 51.9833C35.2195 52.8806 35.3262 53.7192 35.8702 54.4993C36.4142 55.2795 37.1575 55.6686 38.1 55.6667C38.7139 55.6667 39.2456 55.5014 39.6952 55.1708C40.1447 54.8403 40.4866 54.3917 40.7208 53.825L43.2 46.9542ZM44.9 42.0667L49.8583 27.9708H50.1417L55.1 42.0667H44.9Z" fill="white"/>
</svg>
