<svg width="28" height="28" viewBox="0 0 28 28" fill="none" xmlns="http://www.w3.org/2000/svg">
<g clip-path="url(#clip0_1332_70127)">
<path d="M3.16908 12.5731L2.46552 13.137L4.6505 15.8633L5.35406 15.2994L3.16908 12.5731Z" fill="#EB4626"/>
<path d="M2.03389 13.4377L1.33032 14.0016L3.5153 16.7279L4.21887 16.164L2.03389 13.4377Z" fill="#EB4626"/>
<path d="M0 21.0397H0.901639V18.4835H3.45779V17.5819H0V21.0397Z" fill="#EB4626"/>
<path d="M4.58543 22.9964L3.5716 21.9826L3.09375 22.4604L4.34616 23.7135C4.37761 23.7449 4.41492 23.7697 4.45598 23.7867C4.49703 23.8036 4.54102 23.8123 4.58543 23.8122C4.62984 23.8123 4.67383 23.8036 4.71488 23.7867C4.75593 23.7697 4.79325 23.7449 4.82469 23.7135L7.09093 21.4466L6.61308 20.9688L4.58543 22.9964Z" fill="#EB4626"/>
<path d="M0.901639 24.0422H0V27.5H3.45779V26.5984H0.901639V24.0422Z" fill="#EB4626"/>
<path d="M9.01641 26.5984H6.46027V27.5H9.91805V24.0422H9.01641V26.5984Z" fill="#EB4626"/>
<path d="M6.46027 18.4835H9.01641V21.0397H9.91805V17.5819H6.46027V18.4835Z" fill="#EB4626"/>
<path d="M27.1123 9.20122C25.3037 7.99253 23.6686 6.54252 22.2524 4.89139C22.1082 4.72458 21.9549 4.56679 21.7791 4.38196L19.5971 5.97788L17.4692 7.54221C17.5819 7.83073 17.6766 8.05615 17.7533 8.28607C18.2627 9.77378 17.4737 10.7701 15.9139 10.6393C15.1268 10.5479 14.335 10.5012 13.5426 10.4996C12.9064 10.5075 12.2758 10.6202 11.6762 10.8332C10.5987 11.2615 10.441 12.118 11.2254 12.9881C11.6881 13.4794 12.2473 13.8699 12.8678 14.1352C13.4884 14.4005 14.1571 14.5349 14.8319 14.5299C16.509 14.6246 18.1906 14.6696 19.8676 14.7328L27.1213 15.0078C27.2565 13.3037 27.3692 11.6672 27.527 10.0488C27.5657 9.88135 27.5456 9.70572 27.4701 9.55139C27.3945 9.39705 27.2682 9.27341 27.1123 9.20122Z" fill="#0C2045"/>
<path d="M12.8889 10.0217C13.175 9.95956 13.4501 9.85469 13.7049 9.71065C16.2115 7.90737 18.7045 6.06353 21.202 4.2332L22.4508 3.30449L20.0479 0C18.9254 0.838525 17.8434 1.659 16.7479 2.46146C12.8889 5.27457 9.03141 8.08918 5.1754 10.9053C5.07828 10.9782 4.99787 11.0711 4.93956 11.1776C4.88124 11.2841 4.84637 11.4018 4.83728 11.5229C4.83728 12.0504 4.83728 12.6996 4.83728 13.6418C4.88687 13.6418 6.72621 14.2819 6.78031 14.291C6.93248 14.3322 7.09175 14.3403 7.24732 14.3146C7.40288 14.289 7.5511 14.2302 7.68195 14.1422C8.43031 13.5652 9.05695 13.1459 9.7963 12.5598C10.0137 12.3722 10.1706 12.1244 10.2471 11.8476C10.2938 11.5667 10.4075 11.3012 10.5786 11.0736C10.7497 10.8461 10.9731 10.6631 11.2299 10.5402C11.7619 10.3193 12.3344 10.1975 12.8889 10.0217Z" fill="#0C2045"/>
<path d="M6.12213 8.78193C6.29226 8.92974 6.51158 9.0085 6.73687 9.00266C6.96217 8.99682 7.17711 8.9068 7.33935 8.75037C10.0443 6.75774 12.7492 4.78767 15.4766 2.81308C15.5984 2.72742 15.7066 2.62824 15.8914 2.47496C14.7918 2.26216 13.6524 2.46626 12.6951 3.04751C11.0676 3.94915 9.45369 4.90038 7.83525 5.82906C7.08354 6.24725 6.46838 6.87337 6.06352 7.63234C5.86066 8.00201 5.65328 8.42127 6.12213 8.78193Z" fill="#0C2045"/>
</g>
<defs>
<clipPath id="clip0_1332_70127">
<rect width="27.5" height="27.5" fill="white"/>
</clipPath>
</defs>
</svg>
