<svg width="167" height="167" viewBox="0 0 167 167" fill="none" xmlns="http://www.w3.org/2000/svg">
<circle cx="84" cy="84" r="83" fill="#27AE60"/>
<g clip-path="url(#clip0_1332_69366)">
<path d="M106.456 31.299L106.456 31.369L106.522 31.3924L107.975 31.9067L108.109 31.9541L108.108 31.8121L108.07 20.342L108.07 20.2728L108.005 20.2486L106.198 19.5769L106.133 19.5527L106.088 19.6053L98.5857 28.2905L98.4914 28.3997L98.6267 28.4497L99.9983 28.9562L100.063 28.9802L100.109 28.9277L102.077 26.6499L106.429 28.2816L106.456 31.299ZM106.395 26.6145L103.129 25.4117L106.438 21.5197L106.395 26.6145Z" fill="white" stroke="white" stroke-width="0.2"/>
<path d="M116.863 37.3071L116.931 37.3497L116.987 37.2918L124.649 29.3859L124.734 29.2974L124.63 29.2317L123.442 28.4824L123.372 28.4386L123.316 28.4983L117.174 34.9985L120.361 26.6405L120.39 26.5635L120.32 26.52L118.534 25.409L118.465 25.3658L118.409 25.4253L112.271 31.9337L115.446 23.5721L115.475 23.4953L115.405 23.4518L114.138 22.6604L114.033 22.595L113.991 22.7111L110.239 33.0334L110.211 33.1095L110.279 33.1524L111.969 34.2096L112.038 34.253L112.094 34.1938L118.237 27.7358L115.113 36.1248L115.084 36.2014L115.154 36.2446L116.863 37.3071Z" fill="white" stroke="white" stroke-width="0.2"/>
<path d="M125.161 44.6155L125.134 44.679L125.184 44.7266L126.284 45.779L126.388 45.8785L126.445 45.7462L130.979 35.2024L131.006 35.1387L130.956 35.0907L129.558 33.7501L129.508 33.7021L129.446 33.7322L119.08 38.7173L118.95 38.78L119.054 38.8798L120.116 39.894L120.166 39.9418L120.229 39.9118L122.949 38.6027L126.333 41.8382L125.161 44.6155ZM126.967 40.2957L124.453 37.888L129.037 35.635L126.967 40.2957Z" fill="white" stroke="white" stroke-width="0.2"/>
<path d="M131.542 52.9952L131.524 53.044L131.554 53.0866L132.568 54.5396L132.679 54.6998L132.744 54.5155L134.532 49.4189L134.652 49.5875C134.652 49.5876 134.652 49.5876 134.652 49.5877C134.743 49.7166 134.859 49.8262 134.992 49.9102C135.126 49.9941 135.275 50.0507 135.43 50.0767C135.43 50.0767 135.431 50.0768 135.431 50.0768L136.756 50.3071C136.757 50.3071 136.757 50.3071 136.757 50.3072C136.918 50.337 137.083 50.3343 137.243 50.2992C137.403 50.2642 137.555 50.1974 137.688 50.1028L137.689 50.1027L139.344 48.9271C139.344 48.9271 139.344 48.9271 139.344 48.9271C139.479 48.8314 139.592 48.7089 139.677 48.5671C139.762 48.4261 139.816 48.2691 139.837 48.106L140.068 46.7811C140.068 46.781 140.068 46.7808 140.068 46.7806C140.096 46.6255 140.093 46.4662 140.059 46.3123C140.025 46.1583 139.96 46.0129 139.868 45.8846C139.868 45.8845 139.868 45.8844 139.868 45.8843L136.494 41.1098L136.436 41.0281L136.354 41.0858L127.579 47.2894L127.497 47.3473L127.555 47.429L128.403 48.622L128.46 48.7033L128.542 48.6458L132.187 46.0739L133.355 47.71C133.376 47.7424 133.389 47.779 133.395 47.8173C133.4 47.8556 133.396 47.8945 133.385 47.9314L131.542 52.9952ZM136.077 43.3225L138.405 46.6249L138.405 46.6249L138.408 46.6287C138.425 46.6503 138.437 46.6754 138.443 46.7022C138.449 46.7289 138.449 46.7567 138.443 46.7836L138.443 46.7836L138.443 46.7871L138.313 47.5306L138.313 47.5306L138.313 47.5319C138.303 47.5894 138.273 47.6411 138.227 47.6767L136.888 48.6087L136.888 48.6086L136.884 48.6119C136.862 48.6288 136.837 48.6407 136.81 48.6469C136.784 48.6531 136.756 48.6533 136.729 48.6476L136.729 48.6476L136.725 48.647L135.982 48.5173L135.982 48.5168L135.972 48.516C135.945 48.5142 135.919 48.5062 135.897 48.4925C135.874 48.4788 135.855 48.4598 135.84 48.4372L135.841 48.4372L135.837 48.4324L133.506 45.1427L136.077 43.3225Z" fill="white" stroke="white" stroke-width="0.2"/>
<path d="M133.674 56.5051L133.583 56.547L133.625 56.6378L136.541 62.9439L136.583 63.035L136.674 62.9925L137.96 62.392L138.05 62.3498L138.008 62.2594L135.748 57.383L138.524 56.0982L140.776 60.9792L140.818 61.0699L140.909 61.0282L142.2 60.436L142.291 60.3941L142.249 60.3031L139.99 55.4202L142.75 54.1448L145.002 59.0259L145.044 59.1168L145.135 59.0748L146.419 58.4808L146.51 58.4388L146.468 58.3481L143.559 52.0437L143.517 51.9529L143.426 51.9949L133.674 56.5051Z" fill="white" stroke="white" stroke-width="0.2"/>
<path d="M144.022 74.1312L143.923 74.1453L143.937 74.244L144.281 76.7075L144.295 76.8069L144.394 76.7927L146.838 76.4427L146.937 76.4286L146.923 76.3299L146.579 73.8664L146.565 73.767L146.465 73.7812L144.022 74.1312Z" fill="white" stroke="white" stroke-width="0.2"/>
<path d="M140.032 88.0174L140.027 88.0897L140.094 88.1169L150.583 92.366L150.712 92.4181L150.72 92.2797L150.813 90.8174L150.818 90.7451L150.751 90.7182L141.872 87.1747L151.144 84.8806L151.215 84.863L151.22 84.7899L151.315 83.2935L151.324 83.1558L151.191 83.1903L140.236 86.0163L140.167 86.0344L140.162 86.1064L140.032 88.0174Z" fill="white" stroke="white" stroke-width="0.2"/>
<path d="M138.054 99.3877L137.985 99.397L137.97 99.4644L137.634 100.924L137.602 101.064L137.745 101.046L149.112 99.5537L149.181 99.5446L149.197 99.477L149.632 97.5923L149.648 97.5247L149.59 97.4864L140.03 91.1442L139.91 91.0647L139.877 91.2048L139.542 92.6369L139.526 92.7043L139.584 92.7428L142.095 94.4212L141.042 98.9792L138.054 99.3877ZM142.667 98.7338L143.456 95.3346L147.748 98.1293L142.667 98.7338Z" fill="white" stroke="white" stroke-width="0.2"/>
<path d="M136.926 102.866L136.834 102.827L136.795 102.919L134.105 109.329L134.066 109.421L134.158 109.46L135.462 110.011L135.555 110.05L135.593 109.957L137.68 104.997L146.178 108.566L146.27 108.605L146.309 108.513L146.879 107.165L146.918 107.072L146.826 107.034L136.926 102.866Z" fill="white" stroke="white" stroke-width="0.2"/>
<path d="M133.431 110.627L133.345 110.574L133.293 110.66L130.441 115.316L130.389 115.401L130.474 115.453L131.602 116.145L131.687 116.197L131.739 116.112L132.728 114.488L139.445 118.592L138.452 120.207L138.4 120.293L138.485 120.345L139.612 121.036L139.698 121.089L139.75 121.003L142.602 116.347L142.654 116.262L142.569 116.209L141.442 115.518L141.355 115.465L141.303 115.553L140.336 117.194L133.598 113.07L134.591 111.456L134.644 111.37L134.558 111.318L133.431 110.627Z" fill="white" stroke="white" stroke-width="0.2"/>
<path d="M125.337 122.29L125.485 124.148C125.498 124.482 125.638 124.8 125.878 125.034L125.878 125.034L125.883 125.038L130.313 128.803L130.313 128.804L130.317 128.806C130.447 128.907 130.595 128.98 130.754 129.023C130.912 129.065 131.076 129.076 131.238 129.054L133.094 128.9C133.261 128.896 133.425 128.856 133.575 128.783C133.725 128.709 133.858 128.604 133.964 128.474L137.491 124.333L137.556 124.257L137.48 124.192L129.305 117.213L129.229 117.148L129.164 117.224L125.626 121.384C125.626 121.384 125.626 121.384 125.626 121.384C125.519 121.508 125.439 121.652 125.39 121.808C125.34 121.964 125.322 122.127 125.337 122.29ZM127.023 122.226L127.023 122.226L127.025 122.224L129.378 119.472L135.251 124.439L132.89 127.227C132.848 127.269 132.792 127.296 132.733 127.301C132.733 127.301 132.733 127.301 132.732 127.301L131.443 127.406C131.384 127.408 131.325 127.392 131.274 127.362L127.163 123.839C127.142 123.82 127.124 123.797 127.111 123.771C127.099 123.744 127.092 123.715 127.09 123.686L127.09 123.686L127.09 123.683L126.985 122.39L126.986 122.39L126.983 122.377C126.977 122.35 126.977 122.323 126.984 122.297C126.991 122.27 127.005 122.246 127.023 122.226Z" fill="white" stroke="white" stroke-width="0.2"/>
<path d="M116.507 129.685L116.447 129.65L116.394 129.693L115.225 130.631L115.113 130.721L115.237 130.795L125.095 136.647L125.155 136.683L125.209 136.639L126.716 135.424L126.769 135.38L126.748 135.314L123.145 124.418L123.099 124.28L122.987 124.372L121.85 125.297L121.797 125.341L121.818 125.406L122.748 128.271L119.108 131.204L116.507 129.685ZM120.561 132.043L123.277 129.861L124.916 134.694L120.561 132.043Z" fill="white" stroke="white" stroke-width="0.2"/>
<path d="M115.788 140.976L113.086 142.541L113 142.591L113.05 142.678L113.756 143.903L113.806 143.989L113.893 143.939L120.739 139.985L120.825 139.935L120.775 139.848L120.069 138.623L120.019 138.537L119.932 138.587L117.233 140.146L112.62 132.152L112.57 132.065L112.483 132.115L111.216 132.853L111.13 132.903L111.179 132.989L115.788 140.976Z" fill="white" stroke="white" stroke-width="0.2"/>
<path d="M106.565 135.4L106.53 135.306L106.436 135.342L99.9627 137.777L99.8714 137.811L99.9035 137.903L100.371 139.245L100.404 139.341L100.5 139.305L105.535 137.414L106.603 140.263L101.568 142.154L101.473 142.19L101.51 142.284L102.022 143.589L102.058 143.681L102.15 143.646L107.185 141.755L108.249 144.595L103.22 146.489L103.126 146.524L103.162 146.617L103.66 147.946L103.695 148.04L103.789 148.005L110.281 145.575L110.375 145.54L110.34 145.446L106.565 135.4Z" fill="white" stroke="white" stroke-width="0.2"/>
<path d="M92.0885 139.459L92.0885 139.459L92.0858 139.46C91.7607 139.529 91.4759 139.723 91.2926 140.001L90.2353 141.537C90.2353 141.537 90.2353 141.537 90.2353 141.537C90.0518 141.803 89.9779 142.129 90.0289 142.448L90.0289 142.448L90.0293 142.451L91.088 148.169L91.088 148.169L91.0883 148.17C91.1208 148.333 91.1856 148.487 91.2788 148.623C91.3717 148.76 91.491 148.876 91.6296 148.965L93.1704 150.023C93.3031 150.119 93.4539 150.186 93.6136 150.221C93.7735 150.256 93.9388 150.258 94.0995 150.227C94.0997 150.227 94.0998 150.227 94.0999 150.227L99.4512 149.229L99.5493 149.21L99.5312 149.112L97.5764 138.546L97.5582 138.448L97.4599 138.466L92.0885 139.459ZM93.8655 148.572L93.8657 148.572L93.8599 148.568L92.7896 147.831C92.7435 147.794 92.7102 147.743 92.6943 147.686L91.6942 142.36C91.6891 142.3 91.7054 142.241 91.7404 142.193L91.7405 142.193L91.7416 142.191L92.4791 141.124L92.4796 141.124L92.4849 141.114C92.4971 141.091 92.5147 141.072 92.5362 141.058C92.5577 141.044 92.5823 141.035 92.608 141.033L92.608 141.034L92.6177 141.032L96.1765 140.362L97.5774 147.945L94.0199 148.614C93.9929 148.618 93.9655 148.616 93.9392 148.609C93.9123 148.602 93.8872 148.589 93.8655 148.572Z" fill="white" stroke="white" stroke-width="0.2"/>
<path d="M74.258 147.587L75.4016 148.966L74.258 147.587ZM74.258 147.587L74.2583 147.587L74.1943 147.51M74.258 147.587L74.1943 147.51M74.1943 147.51L74.1942 147.51L74.1941 147.51L74.1172 147.574L74.1175 147.574L73.1879 148.351L73.1879 148.351L73.1112 148.415L73.1753 148.492L73.1753 148.492L74.1943 147.51ZM74.0267 141.158L74.0267 141.158L74.0243 141.16C73.7778 141.378 73.6257 141.683 73.6 142.011L73.4151 143.997L73.415 143.997L73.4149 143.999C73.3927 144.315 73.4839 144.628 73.6718 144.882C73.8598 145.136 74.1324 145.315 74.4404 145.386L74.441 145.386L80.4287 146.734L80.4287 146.734L80.4304 146.734C80.4849 146.745 80.5335 146.776 80.5669 146.821C80.6002 146.865 80.6163 146.92 80.612 146.975C80.612 146.976 80.612 146.976 80.612 146.976L80.4907 148.283C80.4874 148.312 80.4784 148.34 80.4642 148.365C80.4499 148.391 80.4306 148.414 80.4075 148.432L80.4074 148.432L80.4052 148.434L79.4113 149.266L79.4113 149.266L79.4099 149.267C79.388 149.286 79.3624 149.3 79.3348 149.309C79.3071 149.318 79.278 149.321 79.249 149.318L79.2489 149.318L75.6294 148.988C75.6004 148.984 75.5723 148.976 75.5468 148.961C75.521 148.947 75.4984 148.928 75.4801 148.905L75.4802 148.905L75.4786 148.903L74.2712 147.446L74.2071 147.369L74.1301 147.433L73.047 148.339L72.9703 148.403L73.0345 148.479L74.4118 150.126C74.5132 150.255 74.6405 150.362 74.7856 150.438C74.9307 150.515 75.0902 150.56 75.254 150.572L79.3143 150.965C79.3144 150.965 79.3145 150.965 79.3145 150.965C79.4776 150.981 79.6423 150.965 79.7987 150.915C79.9548 150.866 80.0993 150.786 80.2234 150.679L81.6597 149.488C81.6598 149.488 81.6599 149.488 81.6601 149.488C81.7871 149.384 81.8919 149.257 81.9683 149.112C82.0448 148.968 82.0912 148.809 82.1049 148.646C82.1049 148.646 82.1049 148.646 82.1049 148.645L82.2898 146.66L82.2899 146.66L82.29 146.658C82.3126 146.34 82.2213 146.025 82.0324 145.77C81.8435 145.514 81.5695 145.334 81.2598 145.262L81.2591 145.262L75.289 143.926L75.289 143.926L75.287 143.926C75.2304 143.915 75.1797 143.883 75.1441 143.838C75.1089 143.793 75.0909 143.736 75.093 143.679L75.2155 142.371C75.2274 142.311 75.2597 142.258 75.307 142.219L75.307 142.219L75.3076 142.218L76.308 141.388L76.3081 141.388L76.3126 141.384C76.333 141.365 76.3574 141.351 76.384 141.342C76.4107 141.334 76.4389 141.331 76.4666 141.335L76.4666 141.335L76.4706 141.335L80.0764 141.669L80.0764 141.669L80.0789 141.669C80.1076 141.671 80.1356 141.679 80.1611 141.692C80.1866 141.706 80.2091 141.724 80.2272 141.746L80.2271 141.746L80.2281 141.748L81.4355 143.204L81.4996 143.281L81.5766 143.217L82.6596 142.312L82.7361 142.248L82.6724 142.171L81.3078 140.527C81.3077 140.527 81.3076 140.527 81.3074 140.527C81.2044 140.4 81.0768 140.295 80.9323 140.219C80.7878 140.142 80.6294 140.096 80.4665 140.082L76.3662 139.678L76.3662 139.678L76.3655 139.678C76.2035 139.663 76.0401 139.681 75.8851 139.731C75.7303 139.78 75.5871 139.86 75.4638 139.966L74.0267 141.158Z" fill="white" stroke="white" stroke-width="0.2"/>
<path d="M63.8247 138.528L63.8732 138.615C63.5997 138.772 63.3985 139.03 63.3125 139.334L63.2164 139.306L63.2163 139.306C63.2163 139.306 63.2163 139.306 63.2163 139.306L60.9364 147.271L60.9084 147.369L61.0066 147.395L62.4389 147.779L62.5339 147.804L62.5609 147.71L64.7748 139.966C64.7942 139.908 64.8334 139.86 64.8854 139.828L66.0176 139.202L66.0176 139.202L66.0223 139.199C66.0461 139.184 66.0729 139.174 66.1009 139.171C66.1288 139.167 66.1572 139.17 66.184 139.178L66.1861 139.179L68.5848 139.87L68.5848 139.87L68.5897 139.871C68.6171 139.878 68.6427 139.89 68.6647 139.908C68.6867 139.926 68.7044 139.948 68.7166 139.973L68.7165 139.973L68.7193 139.979L69.3462 141.113L69.3461 141.113L69.3484 141.116C69.3633 141.141 69.3729 141.168 69.3765 141.196C69.3802 141.224 69.3778 141.253 69.3696 141.28L69.3693 141.281L67.1483 149.026L67.1202 149.123L67.2185 149.15L68.6378 149.53L68.7328 149.556L68.7599 149.461L71.0395 141.497C71.0396 141.497 71.0397 141.497 71.0397 141.497C71.0866 141.34 71.1002 141.175 71.0797 141.013C71.0593 140.851 71.0053 140.695 70.9213 140.556L70.0192 138.926C69.942 138.782 69.8365 138.655 69.7091 138.554C69.5816 138.452 69.4348 138.377 69.2776 138.334C69.2774 138.333 69.2773 138.333 69.2771 138.333L66.4016 137.507L66.4016 137.507L66.4003 137.507C66.0824 137.42 65.7431 137.462 65.4559 137.624L63.8247 138.528Z" fill="white" stroke="white" stroke-width="0.2"/>
<path d="M53.3589 133.626L53.3589 133.626L53.358 133.627C53.0578 133.728 52.8059 133.937 52.6508 134.213L52.6507 134.213L52.6487 134.217L51.7478 135.998L51.7478 135.998L51.7471 136C51.6089 136.284 51.5773 136.609 51.6581 136.915C51.7389 137.221 51.9266 137.487 52.1873 137.666L52.1878 137.667L57.2724 141.114L57.2724 141.114L57.274 141.115C57.3202 141.145 57.3536 141.191 57.3677 141.245C57.3817 141.298 57.3754 141.355 57.3499 141.404L57.3493 141.405L56.7564 142.584C56.7254 142.635 56.6783 142.674 56.6225 142.696L55.3906 143.101L55.3906 143.101L55.3884 143.102C55.3615 143.111 55.3328 143.115 55.3043 143.113C55.2757 143.111 55.2479 143.103 55.2225 143.09L55.2215 143.09L51.9741 141.448C51.9223 141.42 51.8833 141.374 51.865 141.318L51.865 141.318L51.277 139.52L51.2459 139.425L51.1508 139.456L49.8103 139.896L49.7149 139.927L49.7466 140.023L50.4277 142.066C50.4747 142.223 50.5536 142.368 50.6595 142.493C50.7655 142.618 50.8963 142.719 51.0435 142.791C51.0437 142.791 51.0439 142.792 51.0441 142.792L54.7139 144.643C54.714 144.643 54.714 144.643 54.7141 144.643C54.86 144.718 55.0194 144.762 55.1827 144.773C55.3458 144.784 55.5095 144.762 55.664 144.709C55.6643 144.709 55.6646 144.709 55.6648 144.709L57.4364 144.129C57.4366 144.129 57.4368 144.129 57.4369 144.129C57.5923 144.079 57.7364 144 57.8607 143.894C57.9851 143.788 58.0871 143.659 58.1609 143.513L58.161 143.513L59.0637 141.726L59.0637 141.726L59.0646 141.724C59.2011 141.438 59.231 141.113 59.149 140.807C59.0671 140.501 58.8787 140.235 58.6177 140.056L58.6173 140.056L53.5521 136.614L53.5521 136.614L53.5498 136.612C53.5015 136.581 53.4657 136.534 53.4489 136.479C53.4323 136.425 53.4353 136.367 53.4571 136.314L54.0475 135.141C54.0812 135.091 54.1322 135.055 54.1906 135.041L54.1906 135.041L54.1981 135.039L55.4321 134.633L55.4322 134.633L55.4404 134.63C55.4651 134.619 55.4919 134.615 55.5187 134.617C55.5455 134.618 55.5715 134.627 55.5944 134.641L55.5942 134.641L55.6013 134.644L58.832 136.275L58.832 136.275L58.8342 136.276C58.8595 136.288 58.8819 136.305 58.8999 136.327C58.918 136.348 58.9311 136.373 58.9386 136.4L58.9385 136.4L58.9401 136.405L59.5345 138.204L59.5655 138.298L59.6595 138.268L60.9718 137.856L61.0685 137.825L61.0368 137.729L60.3669 135.695C60.3199 135.538 60.2409 135.393 60.1351 135.268C60.0291 135.143 59.8984 135.042 59.7512 134.97C59.751 134.97 59.7507 134.97 59.7505 134.97L56.0823 133.111L56.0817 133.111C55.9356 133.038 55.7765 132.995 55.6135 132.984C55.4507 132.972 55.2873 132.993 55.1326 133.045C55.1325 133.045 55.1323 133.046 55.1322 133.046L53.3589 133.626Z" fill="white" stroke="white" stroke-width="0.2"/>
<path d="M48.6042 128.23L43.0448 135.594L40.5936 133.672L40.5131 133.609L40.4518 133.691L39.5858 134.849L39.5265 134.928L39.6053 134.988L45.875 139.768L45.955 139.829L46.0155 139.748L46.8663 138.621L46.9264 138.542L46.8468 138.481L44.3569 136.595L49.9175 129.23L49.9775 129.15L49.8983 129.09L48.7446 128.211L48.6647 128.15L48.6042 128.23Z" fill="white" stroke="white" stroke-width="0.2"/>
<path d="M40.3427 120.424L40.3719 120.362L40.3242 120.312L39.2861 119.235L39.186 119.131L39.1239 119.261L34.1848 129.606L34.155 129.668L34.2028 129.718L35.5383 131.111L35.5864 131.162L35.6503 131.134L46.1749 126.567L46.3068 126.509L46.2072 126.406L45.1916 125.348L45.1437 125.298L45.0801 125.326L42.3105 126.513L39.0617 123.152L40.3427 120.424ZM38.3653 124.662L40.7808 127.172L36.1126 129.236L38.3653 124.662Z" fill="white" stroke="white" stroke-width="0.2"/>
<path d="M38.3783 118L38.4605 117.943L38.4034 117.861L35.275 113.36L35.218 113.278L35.1359 113.335L34.0522 114.087L33.969 114.145L34.0278 114.227L35.15 115.803L28.645 120.287L27.5724 118.726L27.5157 118.643L27.4332 118.7L26.3431 119.45L26.2606 119.507L26.3175 119.59L29.42 124.083L29.4767 124.166L29.559 124.109L30.6491 123.359L30.7318 123.302L30.6746 123.219L29.5941 121.662L36.0952 117.169L37.1549 118.726L37.2117 118.81L37.2946 118.752L38.3783 118Z" fill="white" stroke="white" stroke-width="0.2"/>
<path d="M31.5759 106.375L31.6156 106.326L31.5886 106.269L30.6473 104.286L30.6042 104.196L30.5137 104.239L20.8292 108.886L20.7392 108.929L20.7821 109.019L21.4045 110.325L21.4476 110.416L21.538 110.372L29.3129 106.647L23.2705 114.086L23.2307 114.135L23.2579 114.192L24.201 116.169L24.2441 116.259L24.3345 116.216L34.019 111.569L34.1089 111.526L34.066 111.436L33.4436 110.13L33.4005 110.039L33.3101 110.082L25.5339 113.814L31.5759 106.375Z" fill="white" stroke="white" stroke-width="0.2"/>
<path d="M27.6802 94.2356L27.7363 94.1958L27.7191 94.1291L27.3481 92.6885L27.3121 92.5488L27.1939 92.6314L17.7926 99.2023L17.7357 99.2421L17.753 99.3093L18.2372 101.183L18.2545 101.251L18.3235 101.258L29.7252 102.464L29.8683 102.479L29.8326 102.34L29.4693 100.922L29.4521 100.855L29.3833 100.848L26.388 100.521L25.2143 95.987L27.6802 94.2356ZM19.658 99.8218L23.8691 96.9485L24.737 100.322L19.658 99.8218Z" fill="white" stroke="white" stroke-width="0.2"/>
<path d="M21.2637 84.1932L20.3663 83.3823C20.3662 83.3822 20.3662 83.3822 20.3661 83.3821C20.245 83.2716 20.1025 83.1871 19.9474 83.1338C19.7925 83.0806 19.6284 83.0597 19.4651 83.0723L17.9086 83.1681C17.7443 83.1669 17.5817 83.2018 17.4324 83.2705C17.2823 83.3396 17.1494 83.441 17.0431 83.5674L16.157 84.5716C16.0455 84.6916 15.9598 84.8334 15.9054 84.988C15.8509 85.1428 15.8288 85.3072 15.8407 85.471C15.8407 85.4712 15.8407 85.4714 15.8407 85.4715L16.2042 91.2943L16.2105 91.3941L16.3102 91.3879L27.0259 90.7219L27.1257 90.7156L27.1195 90.6159L26.7578 84.7878C26.7551 84.6224 26.7171 84.4594 26.6462 84.3099C26.5753 84.1601 26.473 84.0272 26.3464 83.9203L25.3569 83.0304L25.29 83.1048L25.3513 83.0257C25.1106 82.8393 24.8099 82.7479 24.5062 82.769C24.5061 82.769 24.506 82.769 24.5059 82.769L22.9331 82.8679C22.7679 82.8715 22.6054 82.91 22.4561 82.9808C22.3064 83.0518 22.1734 83.1537 22.0659 83.2799L21.2637 84.1932ZM18.0303 84.8543L18.0303 84.8543L18.0314 84.8531C18.0695 84.8086 18.1228 84.7799 18.1808 84.7727L19.4413 84.7434L19.45 84.7432L19.4586 84.7415C19.488 84.7356 19.5184 84.7366 19.5474 84.7444C19.5763 84.7521 19.603 84.7664 19.6256 84.7862C19.6256 84.7862 19.6256 84.7862 19.6257 84.7863L20.5273 85.5821C20.5685 85.6245 20.5957 85.6786 20.6052 85.737L20.8324 89.4271L17.768 89.6175L17.4949 85.5763L17.4952 85.5762L17.494 85.5681C17.4899 85.5406 17.4914 85.5125 17.4986 85.4856C17.5056 85.4595 17.5178 85.4351 17.5344 85.4138L18.0303 84.8543ZM23.1654 84.4684L23.166 84.4683L24.3672 84.3876C24.3954 84.3865 24.4235 84.3916 24.4495 84.4025C24.4759 84.4136 24.4996 84.4303 24.5188 84.4515L24.5184 84.4519L24.5266 84.4592L25.0878 84.957L25.0877 84.957L25.0895 84.9585C25.111 84.9767 25.1286 84.9991 25.1412 85.0243C25.1538 85.0494 25.1612 85.0769 25.1629 85.1051L25.1629 85.1051L25.4094 89.118L22.3566 89.3176L22.1234 85.6289C22.1294 85.5684 22.1557 85.5116 22.1981 85.4679L22.1981 85.468L22.2014 85.4642L23.0107 84.5422C23.0507 84.4985 23.1062 84.472 23.1654 84.4684Z" fill="white" stroke="white" stroke-width="0.2"/>
<path d="M26.6889 80.7464L26.7883 80.7563L26.7983 80.657L27.3457 75.244L27.3558 75.1443L27.256 75.1344L25.9432 75.005L25.8435 74.9952L25.8338 75.0949L25.6502 76.9869L17.7832 76.2345L17.9668 74.3428L17.9764 74.2435L17.8771 74.2336L16.5578 74.1025L16.458 74.0926L16.4484 74.1924L15.9269 79.6123L15.9173 79.7117L16.0166 79.7214L17.3295 79.8508L17.4291 79.8607L17.4388 79.761L17.6224 77.869L25.4881 78.6212L25.2801 80.5048L25.269 80.6053L25.3696 80.6153L26.6889 80.7464Z" fill="white" stroke="white" stroke-width="0.2"/>
<path d="M27.5983 72.9716L27.6956 72.9948L27.7188 72.8975L29.3168 66.1816L29.3393 66.087L29.2454 66.0618L27.878 65.6954L27.7786 65.6688L27.7548 65.7689L26.5093 71.0025L17.5371 68.8665L17.4398 68.8433L17.4166 68.9405L17.0768 70.3645L17.0535 70.4618L17.1509 70.485L27.5983 72.9716Z" fill="white" stroke="white" stroke-width="0.2"/>
<path d="M29.7708 64.7549L29.8637 64.7922L29.9009 64.6992L31.9269 59.6268L31.9639 59.5341L31.8712 59.4969L30.6167 58.994L30.5236 58.9566L30.4866 59.0499L29.7756 60.841L22.4361 57.8916L23.1474 56.0997L23.1841 56.0073L23.092 55.9701L21.8699 55.4758L21.7773 55.4384L21.7398 55.531L19.6879 60.5964L19.6502 60.6894L19.7433 60.7268L20.9978 61.2297L21.0908 61.267L21.1279 61.174L21.8301 59.4151L29.1692 62.3644L28.4608 64.1218L28.4233 64.2147L28.5163 64.252L29.7708 64.7549Z" fill="white" stroke="white" stroke-width="0.2"/>
<path d="M24.5379 53.3881L26.1148 50.6929L34.0752 55.3489L34.1614 55.3994L34.2119 55.3132L34.9544 54.0458L35.005 53.9594L34.9186 53.9089L26.9583 49.2528L28.5353 46.5576L28.5855 46.4718L28.4999 46.4211L27.3011 45.7106L27.2146 45.6594L27.1638 45.7462L23.1664 52.5767L23.1161 52.6625L23.2017 52.7132L24.4006 53.4237L24.4871 53.4749L24.5379 53.3881Z" fill="white" stroke="white" stroke-width="0.2"/>
<path d="M35.3024 42.5128L30.1451 41.7647L30.0904 41.7567L30.0546 41.7988L28.9901 43.0495L28.8732 43.1869L29.0517 43.2132L36.0127 44.2409L39.6175 47.2792L39.6942 47.3438L39.7586 47.2669L40.7088 46.1316L40.7727 46.0551L40.6965 45.9909L37.092 42.9528L34.9314 36.2485L34.8756 36.0753L34.7593 36.2152L33.7342 37.4486L33.6992 37.4908L33.7158 37.543L35.3024 42.5128Z" fill="white" stroke="white" stroke-width="0.2"/>
<path d="M53.285 33.2425L53.285 33.2422C53.3412 32.9193 53.2709 32.5872 53.0888 32.3149L53.0888 32.3149L53.0877 32.3132L49.7604 27.5438L49.7604 27.5438L49.7597 27.543C49.6646 27.4097 49.5437 27.297 49.4041 27.2115C49.2649 27.1262 49.1101 27.0697 48.9487 27.0454L47.1077 26.7187C46.9474 26.6867 46.7822 26.6885 46.6226 26.724C46.4632 26.7596 46.3129 26.828 46.1814 26.925L41.7158 30.0361L41.6338 30.0933L41.691 30.1754L47.8322 38.9859L47.8894 39.068L47.9715 39.0107L52.4481 35.8876L52.4483 35.8875C52.5826 35.7933 52.6969 35.6734 52.7847 35.5347C52.8723 35.3962 52.9317 35.2416 52.9593 35.08C52.9593 35.0799 52.9593 35.0797 52.9594 35.0796L53.285 33.2425ZM48.3229 36.7865L43.9232 30.4664L46.9161 28.375C46.9661 28.3438 47.026 28.3325 47.084 28.3434L47.0851 28.3436L48.3609 28.5678C48.4192 28.5842 48.4714 28.6173 48.511 28.6632L51.5852 33.1181L51.5856 33.1186C51.6014 33.1413 51.6124 33.1669 51.618 33.194C51.6235 33.221 51.6234 33.2489 51.6177 33.276L51.6177 33.276L51.6171 33.2792L51.392 34.5602L51.3914 34.5601L51.3907 34.5712C51.389 34.5974 51.3808 34.6227 51.3667 34.6448C51.3527 34.6669 51.3333 34.685 51.3103 34.6976L51.31 34.6971L51.301 34.7034L48.3229 36.7865Z" fill="white" stroke="white" stroke-width="0.2"/>
<path d="M63.3626 30.1553L63.411 30.2034L63.4734 30.1759L64.8361 29.575L64.9689 29.5165L64.8669 29.4132L56.8071 21.2562L56.7582 21.2068L56.6949 21.2353L54.9335 22.0281L54.8703 22.0565L54.8747 22.1257L55.6051 33.5796L55.6145 33.7258L55.7472 33.6639L57.0727 33.0462L57.1343 33.0175L57.1303 32.9496L56.9521 29.9397L61.2169 28.0243L63.3626 30.1553ZM56.5043 23.1884L60.0482 26.8552L56.8663 28.283L56.5043 23.1884Z" fill="white" stroke="white" stroke-width="0.2"/>
<path d="M62.3167 20.6803L65.3236 19.8566L67.749 28.7563L67.7753 28.8528L67.8717 28.8265L69.2877 28.4415L69.3843 28.4152L69.358 28.3187L66.9325 19.4187L69.9397 18.5949L70.0357 18.5686L70.0098 18.4724L69.6408 17.1018L69.6146 17.0044L69.5175 17.0314L61.8776 19.154L61.7802 19.1811L61.8083 19.2782L62.1943 20.6117L62.2217 20.7064L62.3167 20.6803Z" fill="white" stroke="white" stroke-width="0.2"/>
<path d="M80.5887 26.5364L80.6194 26.596L80.6862 26.5903L82.1792 26.4622L82.3267 26.4495L82.2599 26.3174L77.0835 16.0836L77.0527 16.0228L76.9848 16.0292L75.0677 16.2105L74.9974 16.2171L74.9802 16.2856L72.1777 27.4184L72.1423 27.5594L72.2866 27.5421L73.7217 27.3707L73.7897 27.3626L73.8067 27.2962L74.5564 24.3719L79.2084 23.8565L80.5887 26.5364ZM76.1704 17.7981L78.4089 22.4058L74.9551 22.7649L76.1704 17.7981Z" fill="white" stroke="white" stroke-width="0.2"/>
<path d="M88.8766 23.2455L88.8658 23.3452L88.9655 23.3557L91.5574 23.6303L91.6566 23.6408L91.6674 23.5416L91.9443 20.9805L91.9551 20.8812L91.8558 20.8703L89.2665 20.586L89.167 20.5751L89.1562 20.6746L88.8766 23.2455Z" fill="white" stroke="white" stroke-width="0.2"/>
<path d="M149.076 65.1141L146.763 65.1477L148.587 63.7229L148.336 62.9837L145.594 63.9294L145.784 64.4658L147.647 63.8152L146.001 65.0908L146.188 65.6512L148.28 65.6271L146.417 66.2776L146.595 66.8125L149.327 65.8533L149.076 65.1141Z" fill="white"/>
<path d="M147.725 62.7904L148.21 62.6179L147.462 60.462L146.976 60.6344L147.255 61.4502L145.01 62.2249L145.189 62.7598L147.447 61.9746L147.725 62.7904Z" fill="white"/>
</g>
<defs>
<clipPath id="clip0_1332_69366">
<rect width="135" height="135" fill="white" transform="translate(35.7703 0.829712) rotate(15)"/>
</clipPath>
</defs>
</svg>
