<svg width="113" height="134" viewBox="0 0 113 134" fill="none" xmlns="http://www.w3.org/2000/svg">
<path d="M78.1606 81.0472C72.2873 90.3346 63.5924 94.7948 53.2405 96.0669C45.4319 97.0304 37.5336 97.2443 29.6857 97.9134C23.0967 98.4775 16.8055 100.003 11.7135 104.535C10.697 105.45 9.80756 106.525 8.87214 107.493C7.11603 109.311 5.18281 109.094 2.6604 106.765C1.24104 105.46 1.43428 103.742 2.92296 101.98C10.3138 93.2551 20.281 90.5042 31.121 89.664C38.1571 89.1212 45.2327 88.8728 52.2485 88.1246C60.3259 87.2203 67.0478 83.6693 71.5909 76.6686C75.6429 70.4246 76.5145 63.5765 74.6127 56.5036C73.2445 51.3902 71.3415 46.3908 69.4926 41.4265C67.0332 34.7983 64.4225 28.2256 63.7 21.1113C62.9969 14.8546 64.1124 8.93303 66.8491 3.29526C67.8432 1.28986 69.553 0.786082 71.5248 1.95041C74.8656 3.96475 75.0619 4.6684 73.4531 8.27231C70.7316 14.4193 70.9173 20.7628 72.9603 26.9671C75.1428 33.6076 77.8507 40.0897 80.0602 46.7477C81.3979 50.8425 82.5222 55.0293 83.1737 59.2935C84.3886 67.1883 82.6204 74.5301 78.2052 81.0377L78.1606 81.0472Z" fill="white"/>
<path d="M65.0617 37.2448C65.2727 37.6891 65.5189 38.0793 65.6759 38.4885C66.2659 39.947 66.8289 41.3879 67.3744 42.8559C68.0674 44.6885 67.8825 44.9142 65.8294 45.1183C63.5263 45.3524 61.2233 45.5865 58.9582 45.9988C42.5599 49.0706 33.9573 63.1555 38.6242 79.1678C39.1929 81.0734 39.7887 82.9966 40.4642 84.8562C40.9366 86.1999 40.4872 86.7149 39.1472 86.7673C37.4141 86.8334 35.6554 86.9981 33.9033 86.9751C33.367 86.9728 32.521 86.5006 32.3816 86.0644C29.3505 77.2983 27.7837 68.4068 31.3095 59.363C35.4069 48.8463 42.8463 41.8812 53.7861 38.9931C57.0288 38.1396 60.403 37.794 63.7567 37.2431C64.1849 37.1752 64.597 37.2506 65.0617 37.2448Z" fill="white"/>
<path d="M108.908 26.2096C111.746 28.0515 111.809 29.5522 109.651 32.1083C102.638 40.3104 93.2885 43.1163 83.0659 44.0114C82.5391 44.0536 81.6741 43.4923 81.4536 43.0035C80.7013 41.4398 80.153 39.7394 79.5074 38.1297C78.9269 36.7158 79.4764 36.3426 80.8771 36.1375C84.7671 35.5889 88.6842 35.0578 92.4793 34.0635C96.916 32.9093 100.638 30.3696 103.579 26.785C105.306 24.7169 106.448 24.6134 108.908 26.2096Z" fill="white"/>
<path d="M40.5764 131.447C38.2518 129.939 37.7552 128.81 38.837 126.669C42.0473 120.302 41.7967 113.762 39.9627 107.117C39.448 105.247 38.8266 103.422 38.1782 101.58C37.7612 100.388 38.0755 99.7851 39.371 99.7423C41.1932 99.6572 42.9964 99.4829 44.8201 99.514C45.3564 99.5163 46.1578 99.998 46.3068 100.479C49.4663 109.52 50.8037 118.647 47.1376 127.907C46.9124 128.491 46.5791 129.004 46.327 129.571C44.9636 132.796 43.4862 133.297 40.594 131.42L40.5764 131.447Z" fill="white"/>
<path d="M55.6316 68.116C51.7393 65.5901 47.874 63.0817 43.9817 60.5558C43.1168 59.9945 42.1707 59.3806 42.925 58.2183C43.6968 57.0289 44.6158 57.6253 45.5078 58.2042C53.3195 63.2736 61.1582 68.3605 68.9698 73.4298C69.8618 74.0087 70.7187 74.6416 69.8929 75.7958C69.1291 76.9135 68.2547 76.3077 67.4438 75.7814C63.4974 73.2204 59.578 70.677 55.6316 68.116Z" fill="white"/>
<path d="M25.3545 114.77C21.6243 112.349 17.8767 109.956 14.2086 107.498C13.668 107.148 12.9931 106.057 13.1861 105.759C13.7028 104.904 14.5183 104.358 15.6806 105.112C23.1774 110.015 30.6647 114.874 38.1966 119.723C39.3589 120.478 39.2813 121.426 38.7105 122.246C38.5175 122.544 37.2557 122.416 36.7246 122.11C32.8878 119.735 29.1657 117.243 25.3815 114.787L25.3545 114.77Z" fill="white"/>
<path d="M87.4497 19.0834C91.2339 21.5392 95.0086 23.9503 98.7577 26.4601C99.2713 26.7934 99.9016 27.8939 99.7086 28.1912C99.1919 29.0467 98.3399 29.5309 97.2046 28.7942C89.7078 23.8908 82.2205 19.0319 74.6886 14.1825C73.5263 13.4283 73.6661 12.4434 74.2369 11.623C74.4298 11.3257 75.7011 11.4976 76.2417 11.8485C80.0069 14.2151 83.7195 16.6628 87.4226 19.0659L87.4497 19.0834Z" fill="white"/>
<path d="M73.3297 66.1182C72.4837 65.646 72.0067 65.3749 71.5472 65.0767C65.0329 60.8493 58.5187 56.6219 52.0315 52.412C51.5179 52.0788 51.2499 51.3671 50.8767 50.8175C51.7681 50.6278 52.9402 50.0055 53.4808 50.3563C60.0111 54.4405 66.4362 58.6869 72.8869 62.8346C74.1843 63.6766 73.5894 64.7118 73.3297 66.1182Z" fill="white"/>
<path d="M62.3269 82.7181C61.1635 84.0374 60.237 84.2812 58.8044 83.3515C52.7577 79.3507 46.6409 75.4581 40.5496 71.4667C40.1712 71.2212 39.6145 71.0136 39.5211 70.684C39.3597 69.9263 39.4483 69.1387 39.4477 68.3701C39.949 68.4264 40.5379 68.3476 40.9163 68.5932C47.7994 73.0216 54.6745 77.5216 61.5402 81.977C61.7834 82.1349 61.9565 82.4009 62.2823 82.7276L62.3269 82.7181Z" fill="white"/>
<path d="M74.3753 24.3126C75.2294 24.7132 75.8752 24.9018 76.3888 25.2351C79.6324 27.34 82.9111 29.3909 86.1196 31.5499C86.7413 31.9533 87.0728 32.7447 87.5271 33.3468C86.5451 33.4394 85.5295 33.7022 84.5541 33.607C83.9367 33.5521 83.3838 32.9244 82.8161 32.556C80.6267 31.1352 78.4629 29.6157 76.2033 28.303C74.7897 27.4625 74.3106 26.3065 74.3483 24.2951L74.3753 24.3126Z" fill="white"/>
<path d="M24.841 100.646C26.6897 99.8094 27.9231 99.8031 29.2935 100.769C31.7372 102.509 34.3036 104.059 36.7903 105.673C37.1688 105.918 37.6984 106.108 37.8365 106.428C38.1329 107.274 38.2065 108.167 38.4138 109.031C37.7234 108.852 36.9278 108.835 36.3331 108.449C33.0004 106.363 29.7202 104.196 26.4401 102.029C25.9266 101.696 25.5182 101.2 24.8761 100.592L24.841 100.646Z" fill="white"/>
<path d="M70.4412 50.7992L65.1704 47.3787C66.9503 46.7668 68.3562 46.2578 69.5403 47.3336C70.4352 48.1448 71.0399 49.3439 70.4412 50.7992Z" fill="white"/>
<path d="M42.0498 82.8881L47.4558 86.3963C46.1989 87.3861 44.9305 87.4465 43.7791 86.8529C42.4035 86.1907 42.3943 84.725 42.0498 82.8881Z" fill="white"/>
</svg>
