<svg width="83" height="15" viewBox="0 0 83 15" fill="none" xmlns="http://www.w3.org/2000/svg">
<g clip-path="url(#clip0_1332_69959)">
<path d="M24.3971 7.69064C26.3922 7.36965 27.5368 6.24947 27.5368 4.5253C27.5368 2.76576 26.0129 1.53552 23.8694 1.53552H19.4932V13.458H21.2258V7.72078H22.5699L26.2452 13.4632H28.1524L24.3971 7.69064ZM21.2258 6.90455V2.35568H23.2498C24.6937 2.35568 25.7438 3.29507 25.7438 4.58295C25.7438 5.93241 24.5703 6.89931 22.8994 6.89931L21.2258 6.90455Z" fill="#0C2045"/>
<path d="M36.9617 13.4632H30.5049V1.54077H36.8146V2.36093H32.2376V6.90326H36.4615V7.72341H32.2376V12.6483H36.963L36.9617 13.4632Z" fill="#0C2045"/>
<path d="M48.6754 13.4632H47.9127L40.8076 4.61177V13.4632H39.8113V1.54076H40.5753L47.6765 10.3883V1.53552H48.6754V13.4632Z" fill="#0C2045"/>
<path d="M60.9771 13.4632H60.2144L53.1093 4.61177V13.4632H52.113V1.54076H52.877L59.9795 10.3883V1.53552H60.9797L60.9771 13.4632Z" fill="#0C2045"/>
<path d="M70.7547 13.4632H64.2966V1.54077H70.6116V2.36093H66.0306V6.90326H70.2598V7.72341H66.0253V12.6483H70.7507L70.7547 13.4632Z" fill="#0C2045"/>
<path d="M78.3873 7.69064C80.3825 7.36965 81.527 6.24947 81.527 4.5253C81.527 2.76576 80.0031 1.53552 77.8596 1.53552H73.4834V13.458H75.216V7.72078H76.5654L80.2407 13.4632H82.1479L78.3873 7.69064ZM75.216 6.90455V2.35568H77.2427C78.6866 2.35568 79.7366 3.29507 79.7366 4.58295C79.7366 5.93241 78.5553 6.89931 76.8883 6.89931L75.216 6.90455Z" fill="#0C2045"/>
<path d="M7.51598 0.5H7.51607C8.43789 0.499839 9.35069 0.681008 10.2023 1.03313C11.0539 1.38526 11.8275 1.90142 12.479 2.55207C13.1306 3.20272 13.6472 3.97509 13.9994 4.82503C14.3517 5.67496 14.5326 6.58582 14.532 7.50554V7.50572C14.5313 9.36189 13.792 11.142 12.4764 12.4544C11.1608 13.7669 9.37656 14.5042 7.51607 14.5039H7.51598C5.65556 14.5039 3.87148 13.7665 2.5559 12.4541C2.55122 12.4494 2.54654 12.4447 2.54187 12.44C2.63203 12.4744 2.72809 12.4907 2.82458 12.4879H5.12961C5.27394 12.4939 5.41704 12.457 5.54069 12.3815C5.67104 12.302 5.77329 12.1835 5.83291 12.0427L5.83301 12.0428L5.837 12.0328C6.5221 10.3128 7.12857 8.9624 7.65482 7.90621C7.98361 7.2865 8.69601 6.01981 9.57186 5.05352C9.63887 5.27592 9.74342 5.50168 9.89034 5.70237C10.1229 6.02011 10.4817 6.29763 10.9727 6.34846C11.7864 6.43447 12.7161 5.85652 13.0496 4.74281C13.2821 3.97497 13.044 3.06144 12.3436 2.56627C11.6083 2.04643 10.5569 2.10654 9.39099 2.87662C9.20185 2.9992 8.88468 3.23468 8.50359 3.62567C8.4857 3.43698 8.44357 3.23849 8.35515 3.05736L8.35413 3.05529C8.01686 2.37239 7.21972 2.18839 6.24291 2.3626L6.24132 2.36288C5.84316 2.43522 5.24502 2.69094 4.62211 3.1123C3.9888 3.5407 3.29552 4.16311 2.72388 5.00239L2.71779 5.01133L2.7121 5.02052C2.62942 5.15396 2.58338 5.30685 2.57866 5.46379C2.57399 5.61914 2.60999 5.77295 2.68298 5.91004C2.73842 6.01601 2.85178 6.16193 3.02542 6.24883C3.12494 6.29864 3.26918 6.34034 3.43667 6.30851C3.59957 6.27755 3.72546 6.18829 3.81473 6.08617L3.82809 6.07206L3.88821 6.00885C3.9394 5.95519 4.01075 5.88079 4.09132 5.79788C4.15494 5.7324 4.22311 5.66285 4.29093 5.59468C3.67347 7.28666 2.24046 11.1665 2.12486 11.4787C2.07385 11.6027 2.0579 11.7385 2.079 11.8712C2.0831 11.8969 2.08856 11.9224 2.09533 11.9474C1.06906 10.701 0.500855 9.13259 0.500001 7.50563C0.499518 6.58594 0.680587 5.67514 1.03288 4.82527C1.38518 3.9754 1.90181 3.20308 2.55331 2.55246C3.20481 1.90183 3.9784 1.38565 4.82993 1.03347C5.68145 0.681282 6.59419 0.5 7.51598 0.5ZM9.69499 4.97882C9.69498 4.97883 9.69472 4.97883 9.69421 4.97882C9.69473 4.9788 9.69499 4.97881 9.69499 4.97882ZM3.08009 5.40942C3.0801 5.40941 3.08011 5.40941 3.08011 5.4094L3.08568 5.41465C3.08568 5.41466 3.08568 5.41467 3.08568 5.41468L3.08009 5.40942Z" fill="#0C2045" stroke="black"/>
</g>
<defs>
<clipPath id="clip0_1332_69959">
<rect width="82.1429" height="15" fill="white"/>
</clipPath>
</defs>
</svg>
