<svg width="234" height="306" viewBox="0 0 234 306" fill="none" xmlns="http://www.w3.org/2000/svg">
<path d="M233.568 119.303C233.568 142.838 233.072 166.386 233.746 189.908C234.179 205.093 229.355 217.987 220.178 229.455C193.575 262.702 158.508 285.015 121.595 304.808C119.101 306.145 114.595 306.005 112.062 304.643C76.2691 285.308 42.1949 263.606 15.7578 231.861C5.24405 219.222 0.0890035 205.157 0.279931 188.304C0.865442 140.089 0.699972 91.8476 0.241746 43.6193C0.152646 34.773 3.02929 30.1016 11.3028 27.6705C38.6182 19.6006 65.5899 10.2197 93.1853 3.32087C123.963 -4.37987 153.658 4.54281 182.896 13.4782C196.515 17.6404 209.664 23.3555 223.207 27.8105C230.882 30.3435 234.001 34.353 233.797 42.8938C233.186 68.3508 233.581 93.8205 233.581 119.29L233.568 119.303Z" fill="#001390"/>
</svg>
