<svg width="18" height="18" viewBox="0 0 18 18" fill="none" xmlns="http://www.w3.org/2000/svg">
<path d="M9 1.6875C7.55373 1.6875 6.13993 2.11637 4.9374 2.91988C3.73486 3.72339 2.7976 4.86544 2.24413 6.20163C1.69067 7.53781 1.54586 9.00811 1.82801 10.4266C2.11017 11.8451 2.80661 13.148 3.82928 14.1707C4.85196 15.1934 6.15492 15.8898 7.57341 16.172C8.99189 16.4541 10.4622 16.3093 11.7984 15.7559C13.1346 15.2024 14.2766 14.2651 15.0801 13.0626C15.8836 11.8601 16.3125 10.4463 16.3125 9C16.3105 7.06123 15.5394 5.20246 14.1685 3.83154C12.7975 2.46063 10.9388 1.68955 9 1.6875ZM12.2105 10.523C12.1582 10.5753 12.0962 10.6168 12.0279 10.6451C11.9596 10.6734 11.8864 10.6879 11.8125 10.6879C11.7386 10.6879 11.6654 10.6734 11.5971 10.6451C11.5288 10.6168 11.4668 10.5753 11.4145 10.523L9 8.10773L6.58547 10.523C6.53321 10.5752 6.47117 10.6167 6.40288 10.645C6.3346 10.6733 6.26141 10.6878 6.1875 10.6878C6.11359 10.6878 6.04041 10.6733 5.97212 10.645C5.90384 10.6167 5.8418 10.5752 5.78953 10.523C5.73727 10.4707 5.69582 10.4087 5.66753 10.3404C5.63925 10.2721 5.62469 10.1989 5.62469 10.125C5.62469 10.0511 5.63925 9.9779 5.66753 9.90962C5.69582 9.84134 5.73727 9.77929 5.78953 9.72703L8.60203 6.91453C8.65428 6.86223 8.71631 6.82074 8.7846 6.79244C8.85289 6.76413 8.92608 6.74956 9 6.74956C9.07392 6.74956 9.14712 6.76413 9.21541 6.79244C9.28369 6.82074 9.34573 6.86223 9.39797 6.91453L12.2105 9.72703C12.2628 9.77927 12.3043 9.84131 12.3326 9.9096C12.3609 9.97788 12.3754 10.0511 12.3754 10.125C12.3754 10.1989 12.3609 10.2721 12.3326 10.3404C12.3043 10.4087 12.2628 10.4707 12.2105 10.523Z" fill="white"/>
</svg>
